<svg width="63" height="63" viewBox="0 0 63 63" fill="none" xmlns="http://www.w3.org/2000/svg">
<g filter="url(#filter0_d_2831_423)">
<rect x="56" y="56" width="53" height="53" rx="5" transform="rotate(-180 56 56)" fill="white"/>
</g>
<path d="M45.4004 30.2427C46.2288 30.2427 46.9004 29.5711 46.9004 28.7427C46.9004 27.9142 46.2288 27.2427 45.4004 27.2427L45.4004 30.2427ZM12.5683 27.682C11.9825 28.2678 11.9825 29.2175 12.5683 29.8033L22.1142 39.3493C22.7 39.9351 23.6498 39.9351 24.2356 39.3493C24.8213 38.7635 24.8213 37.8137 24.2356 37.228L15.7503 28.7427L24.2356 20.2574C24.8214 19.6716 24.8214 18.7219 24.2356 18.1361C23.6498 17.5503 22.7 17.5503 22.1142 18.1361L12.5683 27.682ZM45.4004 27.2427L13.629 27.2427L13.629 30.2427L45.4004 30.2427L45.4004 27.2427Z" fill="#4299D5" fill-opacity="0.6"/>
<defs>
<filter id="filter0_d_2831_423" x="0" y="0" width="63" height="63" filterUnits="userSpaceOnUse" color-interpolation-filters="sRGB">
<feFlood flood-opacity="0" result="BackgroundImageFix"/>
<feColorMatrix in="SourceAlpha" type="matrix" values="0 0 0 0 0 0 0 0 0 0 0 0 0 0 0 0 0 0 127 0" result="hardAlpha"/>
<feOffset dx="2" dy="2"/>
<feGaussianBlur stdDeviation="2.5"/>
<feColorMatrix type="matrix" values="0 0 0 0 0.354167 0 0 0 0 0.354167 0 0 0 0 0.354167 0 0 0 0.15 0"/>
<feBlend mode="normal" in2="BackgroundImageFix" result="effect1_dropShadow_2831_423"/>
<feBlend mode="normal" in="SourceGraphic" in2="effect1_dropShadow_2831_423" result="shape"/>
</filter>
</defs>
</svg>
