<svg width="249" height="292" viewBox="0 0 249 292" fill="none" xmlns="http://www.w3.org/2000/svg">
<path d="M211.443 278.093C148.115 280.171 84.7871 282.249 21.4591 284.327C-19.8024 202.702 53.769 118.342 14.0636 36.7133C77.3916 34.6351 140.72 32.557 204.048 30.4788C245.387 112.104 171.738 196.464 211.443 278.093Z" fill="#4994C1"/>
<path d="M212.427 278.091C149.09 280.169 85.7519 282.247 22.4142 284.325C-18.8536 202.7 54.7291 118.34 15.0176 36.7114C78.3553 34.6332 141.693 32.555 205.031 30.4768C246.299 112.102 172.716 196.462 212.427 278.091Z" fill="#81C3EC"/>
<g filter="url(#filter0_d_2966_41331)">
<path d="M213.426 235.416C214.539 246.494 216.66 256.486 220.263 268.643L29.5732 269.065C2.72628 186.445 55.9487 103.571 29.0249 21.3382L219.715 20.9162C243.037 91.8433 206.272 163.988 213.426 235.416Z" fill="white"/>
</g>
<path d="M211.92 74.4459L51.5531 74.5974C50.8551 74.5981 50.2384 75.2983 50.242 75.9979C50.0167 107.248 43.4321 138.426 39.1743 169.68C39.1004 170.379 39.5681 170.845 40.3436 170.845L200.711 170.693C201.409 170.692 202.105 170.303 202.178 169.603C203.075 163.073 204.05 156.698 205.024 150.167C205.099 149.7 205.175 149.234 205.25 148.767C206.301 142.237 207.275 135.628 208.249 129.097C208.324 128.631 208.4 128.164 208.474 127.62C209.448 121.09 210.345 114.481 211.086 107.951C211.161 107.484 211.159 107.018 211.234 106.474C211.975 99.9431 212.561 93.335 212.837 86.805C212.835 86.3386 212.91 85.7943 212.907 85.3279C213.046 82.2184 213.107 78.9534 213.168 75.844C213.242 75.1443 212.696 74.4452 211.92 74.4459ZM205.99 127.156C205.84 128.011 205.767 128.944 205.616 129.8C204.718 135.942 203.742 142.161 202.766 148.303C202.615 149.159 202.464 150.014 202.392 150.947C201.492 156.855 200.594 163.231 199.769 168.517L41.9607 168.667C42.7859 163.302 43.6833 156.927 44.5836 151.096C44.7342 150.241 44.8845 149.308 44.9576 148.452C45.9338 142.31 46.9096 136.091 47.8082 129.949C47.9589 129.093 48.1091 128.16 48.1822 127.305C49.0809 121.163 49.9016 114.944 50.6451 108.802C50.7183 107.947 50.8685 107.014 50.9416 106.159C51.6076 100.017 52.1181 93.7976 52.4739 87.6562C52.5471 86.801 52.5426 85.9459 52.6157 85.0907C52.7579 82.6031 52.8217 79.96 52.81 77.7057L210.541 77.5566C210.475 79.811 210.411 82.4541 210.346 84.9417C210.273 85.7968 210.278 86.6519 210.205 87.5071C209.849 93.6485 209.338 99.7901 208.672 106.01C208.599 106.865 208.449 107.798 208.376 108.653C207.71 114.795 206.889 120.937 205.99 127.156Z" fill="#7FC2EE"/>
<path d="M86.5379 171.209C85.8526 171.209 85.3164 170.589 85.3889 169.891C89.5694 138.703 96.034 107.435 96.2547 76.2512C96.2511 75.5531 96.8571 74.9319 97.5425 74.9313C98.2278 74.9306 98.8402 75.5506 98.8438 76.2487C98.623 107.433 92.1585 138.701 87.978 169.889C87.9058 170.664 87.2233 171.208 86.5379 171.209Z" fill="#81C3EC"/>
<path d="M212.057 88.5175C158.542 88.5732 104.95 88.6291 51.4352 88.6848C50.7362 88.6856 50.1115 88.0211 50.1855 87.2728C50.1818 86.5246 50.7998 85.8588 51.5765 85.858C105.091 85.8023 158.684 85.7464 212.198 85.6907C212.897 85.6899 213.522 86.3544 213.448 87.1027C213.452 87.8509 212.834 88.5167 212.057 88.5175Z" fill="#80C2ED"/>
<path d="M210.16 109.617C156.645 109.673 103.053 109.729 49.538 109.785C48.839 109.785 48.292 109.121 48.366 108.373C48.4399 107.624 49.1357 106.958 49.8347 106.958C103.349 106.902 156.942 106.846 210.457 106.79C211.156 106.79 211.703 107.454 211.629 108.202C211.555 108.951 210.937 109.616 210.16 109.617Z" fill="#80C2ED"/>
<path d="M207.199 129.867C153.685 129.923 100.092 129.979 46.5773 130.035C45.8783 130.035 45.3313 129.371 45.4829 128.623C45.5569 127.874 46.2526 127.209 47.0293 127.208C100.544 127.152 154.136 127.096 207.651 127.04C208.35 127.04 208.897 127.704 208.746 128.452C208.672 129.201 207.976 129.867 207.199 129.867Z" fill="#80C2ED"/>
<path d="M203.906 150.97C150.391 151.026 96.7991 151.082 43.2843 151.137C42.5853 151.138 42.0383 150.474 42.19 149.725C42.3416 148.977 42.9596 148.311 43.7363 148.31C97.2511 148.255 150.843 148.199 204.358 148.143C205.057 148.142 205.604 148.807 205.453 149.555C205.301 150.304 204.605 150.969 203.906 150.97Z" fill="#80C2ED"/>
<path d="M211.461 45.2739C211.461 45.0016 211.149 44.8662 210.915 44.8667C183.71 44.9268 156.505 44.9869 129.3 45.0471C128.988 45.0478 128.832 45.2523 128.833 45.4564C128.991 46.4769 129.149 47.4294 129.229 48.4501C129.23 48.7223 129.542 48.8577 129.776 48.8572C156.981 48.7971 184.186 48.737 211.391 48.6769C211.703 48.6762 211.858 48.4717 211.858 48.2675C211.778 47.3149 211.62 46.2944 211.461 45.2739Z" fill="#83BCDC"/>
<path d="M212.597 55.7523C212.597 55.48 212.362 55.3444 212.05 55.3451C184.794 55.4054 157.537 55.4656 130.281 55.5258C129.969 55.5265 129.813 55.731 129.813 55.9352C129.894 56.9559 129.974 57.9085 130.054 58.9292C130.055 59.2014 130.29 59.337 130.602 59.3363C157.858 59.2761 185.114 59.2159 212.371 59.1556C212.683 59.1549 212.839 58.9504 212.838 58.7463C212.758 57.7256 212.678 56.7049 212.597 55.7523Z" fill="#83BCDC"/>
<path d="M200.143 184.297C200.143 184.025 199.987 183.889 199.675 183.889C145.725 184.009 91.8531 184.128 37.903 184.247C37.5916 184.248 37.3585 184.452 37.3589 184.657C37.2055 185.678 37.1297 186.631 36.9763 187.652C36.9769 187.924 37.1329 188.06 37.4443 188.059C91.3944 187.94 145.267 187.821 199.217 187.702C199.528 187.701 199.761 187.496 199.761 187.292C199.914 186.271 200.068 185.318 200.143 184.297Z" fill="#306694"/>
<path d="M199.206 193.929C199.205 193.588 199.049 193.419 198.738 193.419C144.736 193.539 90.8121 193.658 36.8105 193.777C36.4988 193.778 36.2656 194.034 36.2662 194.289C36.1911 195.565 36.1158 196.756 36.0407 198.032C36.0414 198.373 36.1977 198.542 36.5094 198.542C90.511 198.422 144.435 198.303 198.436 198.184C198.748 198.183 198.981 197.928 198.981 197.672C198.978 196.396 199.053 195.205 199.206 193.929Z" fill="#306694"/>
<path d="M198.288 210.027C198.287 209.754 198.053 209.619 197.819 209.619C143.766 209.739 89.7906 209.858 35.7373 209.977C35.4253 209.978 35.1917 210.183 35.1922 210.387C35.1944 211.408 35.1186 212.361 35.1208 213.382C35.1214 213.654 35.3557 213.789 35.5897 213.789C89.643 213.669 143.618 213.55 197.672 213.431C197.984 213.43 198.217 213.225 198.217 213.021C198.292 212 198.29 210.979 198.288 210.027Z" fill="#306694"/>
<path d="M198.233 219.657C198.232 219.316 197.999 219.147 197.689 219.147C143.952 219.266 90.2923 219.385 36.5551 219.503C36.2449 219.504 36.0904 219.76 36.091 220.015C36.0938 221.291 36.174 222.482 36.1768 223.758C36.1776 224.098 36.4106 224.268 36.7207 224.267C90.4579 224.148 144.118 224.03 197.855 223.911C198.165 223.91 198.319 223.655 198.319 223.399C198.238 222.124 198.236 220.848 198.233 219.657Z" fill="#306694"/>
<path opacity="0.4" d="M220.365 268.643L29.5741 269.065C2.72399 186.445 55.9529 103.571 29.0259 21.3382L49.0068 21.294C54.6924 25.8532 59.4524 33.7464 61.4982 44.7451C61.7342 45.9844 62.1255 47.1458 62.2839 48.4628C62.5211 50.2445 62.9138 52.0258 62.9182 54.0405C62.9217 55.5902 62.9249 57.0625 63.0835 58.4569C63.8745 64.5767 65.8302 69.9965 68.64 74.9495C69.1086 75.8783 69.6547 76.7295 70.2008 77.5806C71.8393 80.2116 73.7106 82.6096 75.7373 85.0072C76.5168 85.9353 77.2184 86.7861 78.0755 87.6366C83.2193 93.2818 89.1397 98.5379 95.0607 104.026C95.7619 104.722 96.5409 105.418 97.242 106.036C97.32 106.114 97.3979 106.191 97.4756 106.191C98.3325 106.964 99.1896 107.814 100.047 108.665C105.812 114.231 111.346 120.185 115.715 127.072C116.261 127.923 116.807 128.774 117.275 129.703C120.397 135.198 122.743 141.237 124.002 148.13C124.16 148.982 124.317 149.834 124.397 150.764C125.029 155.257 125.195 160.061 124.74 165.253C124.665 166.261 124.589 167.346 124.591 168.353C124.516 169.283 124.518 170.136 124.52 170.988C124.53 175.56 125.006 179.821 125.869 183.693C126.184 185.242 126.576 186.636 127.045 188.107C127.672 190.121 128.453 191.978 129.313 193.836C130.016 195.384 130.874 196.855 131.733 198.248C134.385 202.426 137.659 206.061 141.398 209.23C143.267 210.775 145.214 212.243 147.238 213.633C150.431 215.719 153.856 217.648 157.514 219.345C160.938 220.964 164.595 222.429 168.252 223.738C182.725 228.897 198.903 232.116 213.372 235.416C214.562 246.339 216.761 256.485 220.365 268.643Z" fill="url(#paint0_linear_2966_41331)"/>
<path d="M57.339 53.2697L59.6631 53.2675L60.2546 62.7405L57.853 62.7428L57.594 57.618L55.522 61.4249L55.2896 61.4251L52.8682 57.6224L53.1272 62.7472L50.7256 62.7495L50.2891 53.2764L52.6907 53.2741L55.2682 57.3096L57.339 53.2697Z" fill="#474748"/>
<path d="M55.7657 41.0183L52.8998 41.021L50.3917 50.2633L52.9478 50.2609L53.2508 48.9406L56.349 48.9377L56.8206 50.2573L59.3766 50.2548L55.7657 41.0183ZM53.7821 46.8437L54.5405 43.7371L55.6414 46.9196L53.7821 46.8437Z" fill="#47A7E3"/>
<path d="M63.1429 41.0006L59.4258 41.0042L59.7674 47.1374L62.168 47.1351L61.9156 43.2533L63.232 43.2521C63.8516 43.2515 64.3948 43.4839 64.7841 43.8718C65.1737 44.3372 65.4863 44.8804 65.4899 45.5792C65.571 46.2778 65.3415 46.8215 65.0341 47.2877C64.6494 47.7539 64.1855 47.9096 63.4886 47.9102L63.2562 47.9105L62.1721 47.9115L59.7714 47.9138L59.9384 50.2428L63.6555 50.2393C64.8946 50.2381 65.9763 49.7712 66.7463 48.9165C67.5162 48.0617 67.8974 46.8968 67.8135 45.6546C67.7292 44.3348 67.2589 43.2483 66.3252 42.3951C65.546 41.4642 64.4594 40.9994 63.1429 41.0006Z" fill="#47A7E3"/>
<path d="M72.3892 40.98L68.6719 40.9835L68.8385 43.2349L71.2392 43.2327L72.1685 43.2318L72.5557 43.2314C73.1753 43.2308 73.7186 43.4633 74.1853 43.851C74.6523 44.3164 74.8875 44.8597 74.8911 45.5585C74.9722 46.2571 74.8201 46.8008 74.4353 47.267C74.0505 47.7332 73.5871 47.9666 72.8901 47.9672L71.5736 47.9685L71.3211 44.0867L68.9203 44.0889L69.3394 50.2222L73.0567 50.2186C74.2958 50.2175 75.3776 49.7506 76.1476 48.8958C76.9176 48.041 77.2987 46.8761 77.1374 45.634C77.0531 44.3142 76.5053 43.2277 75.649 42.3745C74.7149 41.4437 73.7057 40.9788 72.3892 40.98Z" fill="#47A7E3"/>
<path d="M93.0997 55.5921L95.344 55.5899L96.0002 62.7308L98.3219 62.7286L97.6657 55.5877L99.91 55.5856L99.6657 53.2571L92.8555 53.2635L93.0997 55.5921Z" fill="#474748"/>
<path d="M107.381 58.6737C107.147 58.3634 106.914 58.0531 106.603 57.8205C106.292 57.588 105.982 57.433 105.672 57.3557C105.362 57.2783 105.051 57.1234 104.586 56.9686C103.966 56.8139 103.501 56.6591 103.268 56.5041C103.035 56.3491 102.88 56.194 102.878 55.9611C102.878 55.8058 102.954 55.6505 103.031 55.4952C103.185 55.4174 103.34 55.3396 103.649 55.3393C104.346 55.3387 104.812 55.6488 105.202 56.347L107.054 55.1809C106.663 54.4826 106.196 53.9397 105.498 53.6299C104.877 53.2423 104.179 53.0877 103.405 53.0885C102.477 53.0893 101.781 53.3229 101.242 53.8668C100.703 54.4106 100.475 55.1095 100.557 55.9633C100.638 56.7394 100.951 57.4378 101.495 57.8254C102.039 58.2906 102.737 58.6005 103.59 58.9101C104.21 59.0648 104.598 59.2197 104.753 59.2972C105.218 59.452 105.374 59.6847 105.453 59.9951C105.533 60.3832 105.147 60.6164 104.45 60.6171C103.599 60.6179 102.978 60.2303 102.509 59.3769L100.658 60.543C100.971 61.2414 101.516 61.8618 102.137 62.2494C102.836 62.7145 103.611 62.869 104.617 62.868C105.7 62.867 106.473 62.6334 107.089 62.0894C107.706 61.5455 107.934 60.8467 107.852 59.9152C107.695 59.4496 107.538 58.984 107.381 58.6737Z" fill="#474748"/>
<path d="M66.2731 53.2491L63.4074 53.2519L60.9008 62.7267L63.4566 62.7243L63.7592 61.3264L66.8572 61.3235L67.3291 62.7206L69.885 62.7182L66.2731 53.2491ZM64.2904 59.2296L65.0484 56.0455L66.2267 59.2277L64.2904 59.2296Z" fill="#474748"/>
<path d="M89.3008 59.0193L92.473 59.0163L92.3066 56.7654L89.1343 56.7684L89.0501 55.449L92.5319 55.4457L92.3654 53.1948L86.5625 53.2003L87.3854 62.6693L93.2657 62.6637L93.0993 60.4129L89.5401 60.4162L89.3008 59.0193Z" fill="#474748"/>
<path d="M85.6868 53.2097L83.0541 53.2122L80.8291 57.1738L80.4988 53.2146L78.1758 53.2168L78.9219 62.6878L81.3223 62.6856L80.9904 58.4158L83.955 62.6831L86.5878 62.6806L83.1553 57.7927L85.6868 53.2097Z" fill="#474748"/>
<path d="M75.8573 59.2076C76.3202 58.8966 76.7053 58.5081 76.9351 58.0421C77.165 57.5761 77.2396 57.0325 77.2367 56.4891C77.1545 55.5576 76.7633 54.7816 76.1407 54.1612C75.4407 53.5408 74.6649 53.231 73.7358 53.2318L73.581 53.232L73.1938 53.2323L72.3422 53.2332L70.7938 53.2346L70.0195 53.2354L70.6881 62.706L73.0882 62.7037L72.8398 59.5986L73.6914 59.5978L75.4883 62.7014L78.0432 62.699L75.8573 59.2076ZM74.6858 57.2679C74.5318 57.4233 74.3003 57.5788 73.9907 57.5791L72.6745 57.5803L72.5938 56.9593L72.5087 55.4844L73.3604 55.4836L73.7475 55.4832L73.8249 55.4831C74.1346 55.4828 74.3673 55.5602 74.5233 55.793C74.7564 55.948 74.8354 56.2585 74.8371 56.569C74.9161 56.8795 74.8399 57.1125 74.6858 57.2679Z" fill="#474748"/>
<defs>
<filter id="filter0_d_2966_41331" x="0.769531" y="0.91626" width="247.797" height="290.149" filterUnits="userSpaceOnUse" color-interpolation-filters="sRGB">
<feFlood flood-opacity="0" result="BackgroundImageFix"/>
<feColorMatrix in="SourceAlpha" type="matrix" values="0 0 0 0 0 0 0 0 0 0 0 0 0 0 0 0 0 0 127 0" result="hardAlpha"/>
<feOffset dy="1"/>
<feGaussianBlur stdDeviation="10.5"/>
<feComposite in2="hardAlpha" operator="out"/>
<feColorMatrix type="matrix" values="0 0 0 0 0.35625 0 0 0 0 0.4465 0 0 0 0 0.475 0 0 0 0.1 0"/>
<feBlend mode="normal" in2="BackgroundImageFix" result="effect1_dropShadow_2966_41331"/>
<feBlend mode="normal" in="SourceGraphic" in2="effect1_dropShadow_2966_41331" result="shape"/>
</filter>
<linearGradient id="paint0_linear_2966_41331" x1="34" y1="269" x2="220" y2="31.5" gradientUnits="userSpaceOnUse">
<stop stop-color="#ACD8EF" stop-opacity="0.5"/>
<stop offset="1" stop-color="#F5FAFF" stop-opacity="0"/>
</linearGradient>
</defs>
</svg>
