<svg width="206" height="289" viewBox="0 0 206 289" fill="none" xmlns="http://www.w3.org/2000/svg">
<path d="M195.089 97.5869C195.089 141.628 137.555 247.277 113.71 284.105C109.637 290.385 93.0045 289.197 88.9314 282.917C65.0862 246.089 0 141.543 0 97.5869C0 43.702 43.702 0 97.5869 0C151.472 0 195.089 43.702 195.089 97.5869Z" fill="#306694"/>
<path d="M205.698 97.5869C205.698 141.628 140.612 246.089 116.767 282.917C112.694 289.197 103.529 289.197 99.4559 282.917C75.6956 246.089 10.6094 141.543 10.6094 97.5869C10.6094 43.702 54.3113 0 108.111 0C161.911 0 205.698 43.702 205.698 97.5869Z" fill="url(#paint0_linear_2966_41421)"/>
<path opacity="0.7" d="M108.11 142.307C137.776 142.307 161.825 118.258 161.825 88.5919C161.825 58.9258 137.776 34.8767 108.11 34.8767C78.4437 34.8767 54.3945 58.9258 54.3945 88.5919C54.3945 118.258 78.4437 142.307 108.11 142.307Z" fill="#306694"/>
<path d="M108.108 139.083C135.993 139.083 158.598 116.477 158.598 88.5919C158.598 60.7067 135.993 38.1013 108.108 38.1013C80.2226 38.1013 57.6172 60.7067 57.6172 88.5919C57.6172 116.477 80.2226 139.083 108.108 139.083Z" fill="white"/>
<path d="M90.7987 93.5138V112.013L80.1914 112.352V84.5188C81.1248 86.1311 82.3129 87.5737 83.7554 88.9314C85.3678 90.4589 87.1498 91.7317 89.0167 92.75C89.6107 93.0046 90.2047 93.344 90.7987 93.5138Z" fill="#474748"/>
<path d="M139.934 101.236C139.934 106.412 138.237 110.825 134.758 114.389C131.279 118.038 126.951 119.989 121.69 120.159L105.821 120.838V95.0412L116.089 94.9563V111.164L121.605 110.995C124.236 110.91 126.357 109.976 128.054 108.279C129.751 106.497 130.515 104.206 130.515 101.406C130.515 98.6052 129.667 96.314 128.054 94.6169C126.442 92.9197 124.236 92.0711 121.605 92.0711L99.9662 92.2408C96.6567 92.2408 93.6018 91.6468 90.9712 90.374C90.8015 90.2891 90.6318 90.2042 90.4621 90.1194C88.8498 89.2708 87.3223 88.1677 85.8797 86.8099C84.8614 85.8765 84.0977 84.8582 83.334 83.8399C81.2974 80.8699 80.1942 77.4755 80.1094 73.6569V72.1295C80.2791 66.9531 82.2308 62.6253 85.8797 59.1462C89.6983 55.4973 94.4504 53.8001 99.9662 53.9698L116.004 54.479V79.9364L105.737 79.8516V63.7285L99.9662 63.5588C97.1659 63.4739 94.8747 64.3225 93.0927 66.1045C91.3106 67.8866 90.3772 70.1777 90.3772 73.1478C90.3772 76.1178 91.2258 78.4938 93.0927 80.2758C94.8747 82.0579 97.1659 82.9065 99.9662 82.9913H121.52C126.781 82.9913 131.109 84.7733 134.588 88.2525C138.152 91.7317 139.934 96.0595 139.934 101.236Z" fill="#474748"/>
<defs>
<linearGradient id="paint0_linear_2966_41421" x1="108.154" y1="0" x2="108.154" y2="287.627" gradientUnits="userSpaceOnUse">
<stop stop-color="#6BC3FB"/>
<stop offset="1" stop-color="#89C3E8"/>
</linearGradient>
</defs>
</svg>
