<svg width="1394" height="883" viewBox="0 0 1394 883" fill="none" xmlns="http://www.w3.org/2000/svg">
<path opacity="0.3" d="M1366.24 598.56C1343.77 571.359 1310.39 555.37 1286.05 529.838C1246.73 488.601 1235.79 427.616 1237.36 370.653C1238.93 313.691 1251.11 257.259 1250.22 200.282C1249.33 143.305 1232.69 82.6258 1188.37 46.8226C1140.69 8.30578 1071.27 7.61046 1013.41 27.7957C955.537 47.981 905.914 85.9071 855.336 120.525C828.86 138.645 797.339 156.785 766.477 148.035C736.041 139.407 718.862 108.364 701.977 81.604C682.262 50.3608 656.468 20.5924 621.423 8.92733C552.28 -14.0879 543.609 12.2633 540.303 33.1763C535.353 64.5064 527.944 87.1688 502.855 97.1792C477.766 107.19 449.062 102.773 423.778 93.266C398.495 83.7588 375.273 69.4644 350.313 59.1361C310.416 42.6257 265.026 36.6801 223.714 49.235C182.401 61.7899 146.25 94.6884 136.029 136.651C118.938 206.826 174.04 282.571 148.339 350.068C130.61 396.627 80.8899 421.43 47.5097 458.407C-16.8262 529.674 -12.6421 646.007 40.9316 725.685C94.5053 805.364 187.287 851.667 281.47 870.232C375.652 888.797 472.689 882.932 568.576 878.405C719.256 871.29 870.183 867.669 1020.96 872.22C1083.31 874.102 1146.34 877.331 1207.54 865.266C1268.74 853.201 1329.11 823.818 1364.97 772.759C1400.83 721.701 1405.96 646.669 1366.24 598.56Z" fill="#D9EAF5"/>
<path d="M1348.99 589.141C1327.14 563.776 1294.67 548.866 1270.99 525.058C1232.75 486.604 1222.1 429.735 1223.63 376.617C1225.16 323.498 1237.01 270.875 1236.14 217.744C1235.28 164.612 1219.09 108.028 1175.98 74.6409C1129.6 38.7233 1062.07 38.0744 1005.78 56.8975C949.49 75.7205 901.218 111.087 852.019 143.369C826.266 160.266 795.604 177.181 765.582 169.022C735.976 160.977 719.265 132.028 702.84 107.074C683.664 77.9396 658.573 50.1803 624.483 39.3025C557.225 17.8405 548.789 42.4133 545.575 61.9149C540.759 91.1305 533.552 112.264 509.147 121.598C484.742 130.933 456.82 126.815 432.226 117.949C407.632 109.084 385.043 95.7545 360.764 86.1227C321.954 70.7266 277.801 65.1823 237.615 76.8898C197.429 88.5974 162.263 119.275 152.321 158.407C135.696 223.845 189.295 294.478 164.295 357.42C147.05 400.837 98.6848 423.966 66.2145 458.447C3.63252 524.904 7.70252 633.385 59.8158 707.687C111.929 781.989 202.182 825.166 293.797 842.478C385.412 859.79 479.803 854.321 573.077 850.099C719.649 843.464 866.462 840.088 1013.13 844.332C1073.78 846.087 1135.09 849.097 1194.62 837.847C1254.16 826.596 1312.88 799.196 1347.76 751.583C1382.65 703.971 1387.64 634.003 1348.99 589.141Z" fill="#FAFDFF"/>
</svg>
