<svg width="451" height="394" viewBox="0 0 451 394" fill="none" xmlns="http://www.w3.org/2000/svg">
<g clip-path="url(#clip0_3070_48412)">
<path d="M293.568 20.9771C408.052 72.2111 403.401 161.109 397.288 242.559C395.619 264.798 380.366 321.12 342.047 350.082C268.7 405.519 157.239 411.929 78.7759 348.334C68.6715 340.144 0.959282 283.438 1.1817 194.268C1.34461 128.982 37.8435 82.8818 42.3916 77.2753C48.1371 70.1928 61.7993 54.5641 83.5545 40.407C134.672 7.14286 236.532 -4.54789 293.568 20.9771Z" fill="#F4F9FD"/>
<path d="M101.168 237.891C101.168 237.891 101.981 187.548 78.7137 174.253C55.446 160.958 11.3369 152.871 9.13621 80.6091C7.8477 38.3037 6.6609 19.8118 5.89832 11.7504C5.82796 11.018 5.92805 10.2793 6.19075 9.59206C6.45346 8.90486 6.87163 8.28788 7.41249 7.7895C7.95335 7.29112 8.6022 6.92487 9.30818 6.71947C10.0142 6.51407 10.7581 6.4751 11.4816 6.60561C33.4524 10.5747 104.853 27.0567 120.166 75.6267C138.32 133.207 101.168 237.891 101.168 237.891Z" fill="#3C96CF"/>
<path d="M28.602 26.5854C52.8482 47.8971 80.9849 85.7271 96.1172 123.656C98.0701 129.911 103.745 143.202 106.345 166.872C108.657 186.613 107.741 207.499 105.225 221.338C105.187 221.546 105.109 221.745 104.995 221.923C104.88 222.1 104.732 222.254 104.558 222.374C104.384 222.495 104.188 222.579 103.982 222.624C103.775 222.669 103.562 222.672 103.354 222.634C101.851 222.361 102.038 220.743 102.052 220.794C104.866 197.16 103.4 167.781 96.3391 141.317C87.3285 108.824 67.5434 77.4053 47.1239 50.7855L45.0235 48.1649C29.208 28.1543 25.9096 28.0311 27.3631 26.6167C27.5282 26.4572 27.747 26.3654 27.9764 26.3596C28.2058 26.3538 28.4291 26.4344 28.602 26.5854Z" fill="url(#paint0_linear_3070_48412)"/>
<path d="M145.505 330.854C148.651 332.368 115.531 291.333 104.762 226.57C99.687 196.052 99.3326 157.77 81.8286 143.15C67.2605 130.982 18.0643 139.109 1.97038 142.177C1.51944 142.263 1.10208 142.475 0.767132 142.789C0.43218 143.103 0.193475 143.506 0.0789313 143.95C-0.0356125 144.395 -0.0212599 144.863 0.120311 145.3C0.261881 145.737 0.524817 146.125 0.878371 146.417C8.65647 152.854 25.3061 168.05 29.7313 183.459C35.5642 203.769 54.998 216.568 72.3346 219.94C89.6712 223.311 99.3263 226.638 107.97 254.278C116.614 281.918 136.566 326.551 145.505 330.854Z" fill="#AACEEC"/>
<path d="M24.7022 150.604C45.2707 151.309 67.4138 160.528 78.7483 178.051L79.8183 179.723C82.2899 183.644 96.3409 211.546 104.203 234.704C104.25 234.842 104.24 234.994 104.176 235.125C104.111 235.257 103.997 235.357 103.858 235.404C103.723 235.447 103.576 235.438 103.448 235.377C103.319 235.317 103.218 235.21 103.165 235.079C97.7108 222.004 89.8937 205.434 83.6739 193.046C77.002 179.527 72.3353 170.373 57.2855 161.685C40.537 152.333 24.5978 151.478 24.6456 151.488C24.531 151.477 24.4252 151.422 24.3505 151.334C24.2758 151.247 24.2382 151.133 24.2455 151.018C24.2529 150.904 24.3047 150.796 24.39 150.719C24.4752 150.641 24.5872 150.6 24.7023 150.604H24.7022Z" fill="white"/>
<path d="M150.669 317.288C152.729 317.71 134.948 300.759 128.809 283.048C122.67 265.338 109.692 235.838 88.863 221.999C68.0343 208.16 50.585 211.429 34.0662 234.341C20.3005 253.435 11.232 263.689 5.09588 266.892C4.74329 267.081 4.43974 267.349 4.20946 267.677C3.97919 268.004 3.82858 268.38 3.76967 268.776C3.71076 269.172 3.74519 269.576 3.87019 269.957C3.9952 270.337 4.20732 270.682 4.48961 270.966C10.9095 277.45 27.8717 291.698 47.3474 284.672C72.1899 275.709 98.0674 250.31 111.41 261.319C124.753 272.329 125.788 280.363 127.969 286.788C130.15 293.213 137.037 314.496 150.669 317.288Z" fill="#F78A4B"/>
<path d="M35.4971 257.829C42.5436 247.707 55.4175 236.027 68.9239 233.57C86.6541 230.914 100.808 237.197 111.161 249.673C115.348 255.031 117.287 257.978 120.882 264.994C121.169 265.554 120.181 266.034 119.84 265.505C117.782 262.317 115.686 258.962 113.041 255.631C96.9528 233.856 76.8052 236.163 75.9134 235.881C74.4976 236.425 64.0879 233.442 45.9692 248.983C42.604 251.888 39.4353 255.013 36.4842 258.339L36.4681 258.357C36.364 258.473 36.2236 258.55 36.07 258.575C35.9164 258.601 35.7588 258.573 35.623 258.497C35.568 258.464 35.5206 258.419 35.4839 258.367C35.4472 258.314 35.4221 258.254 35.4102 258.191C35.3983 258.128 35.3999 258.063 35.4149 258.001C35.4299 257.938 35.4579 257.88 35.4971 257.829Z" fill="url(#paint1_linear_3070_48412)"/>
</g>
<g clip-path="url(#clip1_3070_48412)">
<path d="M348.034 318.71C408.32 258.295 408.32 160.343 348.034 99.9282C287.748 39.5134 190.005 39.5134 129.719 99.9282C69.4334 160.343 69.4334 258.295 129.719 318.71C190.005 379.124 287.748 379.124 348.034 318.71Z" fill="#306694"/>
<path d="M238.732 341.438C311.447 341.438 370.395 282.286 370.395 209.319C370.395 136.351 311.447 77.1993 238.732 77.1993C166.016 77.1993 107.069 136.351 107.069 209.319C107.069 282.286 166.016 341.438 238.732 341.438Z" fill="#47A7E3"/>
<path d="M238.731 348.056C162.496 348.056 100.474 285.819 100.474 209.319C100.474 132.818 162.496 70.5815 238.731 70.5815C314.966 70.5815 376.988 132.818 376.988 209.319C376.988 285.819 314.966 348.056 238.731 348.056ZM238.731 77.1993C166.132 77.1993 107.069 136.467 107.069 209.319C107.069 282.17 166.132 341.438 238.731 341.438C311.33 341.438 370.393 282.17 370.393 209.319C370.393 136.467 311.33 77.1993 238.731 77.1993Z" fill="white"/>
<path d="M295.49 266.274C326.836 234.818 326.836 183.819 295.49 152.364C264.143 120.909 213.32 120.909 181.974 152.364C150.627 183.819 150.627 234.818 181.974 266.274C213.32 297.729 264.143 297.729 295.49 266.274Z" fill="#47A7E3"/>
<path d="M238.731 296.483C190.835 296.483 151.869 257.381 151.869 209.319C151.869 161.257 190.835 122.155 238.731 122.155C286.627 122.155 325.594 161.256 325.594 209.319C325.594 257.381 286.628 296.483 238.731 296.483ZM238.731 135.39C198.108 135.39 165.058 168.554 165.058 209.319C165.058 250.083 198.108 283.248 238.731 283.248C279.355 283.248 312.405 250.083 312.405 209.319C312.405 168.554 279.355 135.39 238.731 135.39Z" fill="white"/>
<path d="M269.125 215.925C272.761 199.081 262.101 182.469 245.315 178.82C228.529 175.171 211.974 185.868 208.338 202.712C204.702 219.556 215.362 236.169 232.148 239.817C248.934 243.466 265.489 232.769 269.125 215.925Z" fill="#306694"/>
<path d="M238.731 247.142C231.276 247.142 223.989 244.924 217.79 240.768C211.591 236.612 206.76 230.705 203.907 223.793C201.054 216.882 200.308 209.277 201.762 201.94C203.217 194.603 206.807 187.863 212.078 182.573C217.35 177.283 224.066 173.681 231.378 172.222C238.689 170.762 246.268 171.511 253.156 174.374C260.043 177.237 265.93 182.085 270.072 188.305C274.213 194.525 276.424 201.838 276.424 209.319C276.413 219.347 272.438 228.961 265.372 236.052C258.305 243.143 248.725 247.131 238.731 247.142ZM238.731 184.729C233.885 184.729 229.147 186.172 225.117 188.873C221.088 191.575 217.947 195.416 216.092 199.909C214.238 204.402 213.752 209.346 214.698 214.116C215.643 218.886 217.977 223.267 221.404 226.706C224.831 230.145 229.197 232.487 233.951 233.435C238.704 234.384 243.631 233.897 248.108 232.036C252.586 230.175 256.413 227.023 259.106 222.98C261.798 218.936 263.235 214.182 263.235 209.319C263.228 202.799 260.644 196.549 256.05 191.94C251.456 187.33 245.228 184.737 238.731 184.729Z" fill="white"/>
<path d="M268.309 179.154L272.467 183.326L429.908 25.3352L425.75 21.1631L268.309 179.154Z" fill="#303030"/>
<path d="M271.253 169.086C273.638 166.693 284.883 177.977 282.498 180.37L240.79 213.273C239.249 214.488 237.253 212.485 238.464 210.938L271.253 169.086Z" fill="#ED6E24"/>
<path d="M429.819 25.4266L451 27.5391L421.922 56.7174C417.218 61.4385 411.527 65.0527 405.261 67.2991C398.996 69.5456 392.311 70.3683 385.69 69.7079L429.819 25.4266Z" fill="#ED6E24"/>
<path d="M425.661 21.2544L423.556 0L394.479 29.1782C389.774 33.8993 386.172 39.6096 383.933 45.8969C381.695 52.1843 380.875 58.8919 381.533 65.5358L425.661 21.2544Z" fill="#ED6E24"/>
</g>
<defs>
<linearGradient id="paint0_linear_3070_48412" x1="15064.6" y1="159583" x2="59878.4" y2="159583" gradientUnits="userSpaceOnUse">
<stop stop-color="white"/>
<stop offset="1" stop-color="#E9EFFD"/>
</linearGradient>
<linearGradient id="paint1_linear_3070_48412" x1="20913.5" y1="55045.6" x2="71352" y2="55045.6" gradientUnits="userSpaceOnUse">
<stop stop-color="white"/>
<stop offset="1" stop-color="#E9EFFD"/>
</linearGradient>
<clipPath id="clip0_3070_48412">
<rect width="399.859" height="387.334" fill="white" transform="translate(0 6.52808)"/>
</clipPath>
<clipPath id="clip1_3070_48412">
<rect width="366.537" height="364.123" fill="white" transform="translate(84.4624)"/>
</clipPath>
</defs>
</svg>
