<svg width="73" height="70" viewBox="0 0 73 70" fill="none" xmlns="http://www.w3.org/2000/svg">
<path d="M68.1661 32.2113C68.1661 51.1118 52.9784 67.4435 34.2008 68.711C15.3448 69.9673 0.0117188 55.5873 0.0117188 36.5635C0.0117188 17.5396 15.3448 1.20788 34.1896 0.0637567C52.9784 -1.08036 68.1661 13.3109 68.1661 32.2113Z" fill="#303030"/>
<path d="M72.192 33.4232C72.192 52.3237 57.0044 68.6554 38.2267 69.9229C19.3707 71.1904 4.04883 56.7992 4.04883 37.7866C4.04883 18.774 19.3707 2.41979 38.2267 1.27567C57.0155 0.13155 72.192 14.5228 72.192 33.4232Z" fill="#47A7E3"/>
<path d="M39.301 30.3151C42.7903 30.3151 45.6758 31.3022 47.9573 33.2651C50.2388 35.2281 51.3795 38.0659 51.3795 41.7675C51.3795 45.7046 50.1381 48.7444 47.6553 50.8756C45.1725 53.018 42.0522 54.0836 38.2944 54.0836C34.9728 54.0836 32.1321 53.377 29.7612 51.9636C27.4014 50.5503 25.7126 48.464 24.7061 45.7046L33.5637 40.6009C34.2683 43.0574 35.8452 44.2913 38.2944 44.2913C39.2003 44.2913 39.9273 44.0782 40.4865 43.6295C41.0345 43.192 41.3141 42.5527 41.3141 41.7114C41.3141 40.0625 40.3075 39.2325 38.2944 39.2325H26.7191L28.173 17.9316H49.3665V27.724H37.3885L37.1872 30.3039H39.301V30.3151Z" fill="white"/>
</svg>
