<svg width="73" height="70" viewBox="0 0 73 70" fill="none" xmlns="http://www.w3.org/2000/svg">
<path d="M68.2559 32.2113C68.2559 51.1117 53.0456 67.4435 34.24 68.711C15.3559 69.9673 0 55.5873 0 36.5635C0 17.5396 15.3559 1.20788 34.2288 0.0637567C53.0456 -1.08036 68.2559 13.3109 68.2559 32.2113Z" fill="#303030"/>
<path d="M72.2886 33.4227C72.2886 52.3231 57.0784 68.6549 38.2727 69.9224C19.3886 71.1899 4.04395 56.7987 4.04395 37.7861C4.04395 18.7735 19.3886 2.4193 38.2727 1.27518C57.0896 0.131062 72.2886 14.5223 72.2886 33.4227Z" fill="#47A7E3"/>
<path d="M51.5339 36.8099V45.8955H48.0057V51.0441H38.1269V45.8955H23.3086V36.8099L33.0418 15.7109H44.4776L34.5987 36.8099H38.1269V31.8632H48.0057V36.8099H51.5339Z" fill="white"/>
</svg>
