<svg width="94" height="36" viewBox="0 0 94 36" fill="none" xmlns="http://www.w3.org/2000/svg">
<path d="M90.023 30C91.6441 30 93.049 31.2857 93.049 33C93.049 34.6071 91.7522 36 90.023 36C88.402 36 86.9971 34.7143 86.9971 33C87.1051 31.2857 88.402 30 90.023 30Z" fill="#E97522"/>
<path d="M68.3014 30C69.9225 30 71.3274 31.2857 71.3274 33C71.3274 34.6071 70.0305 36 68.3014 36C66.6803 36 65.2754 34.7143 65.2754 33C65.3835 31.2857 66.6803 30 68.3014 30Z" fill="#E97522"/>
<path d="M46.5787 30C48.1998 30 49.6047 31.2857 49.6047 33C49.6047 34.6071 48.3079 36 46.5787 36C44.8496 36 43.5527 34.7143 43.5527 33C43.5527 31.2857 44.9577 30 46.5787 30Z" fill="#E97522"/>
<path d="M46.5787 15C48.1998 15 49.6047 16.2857 49.6047 18C49.6047 19.6071 48.3079 21 46.5787 21C44.8496 21 43.5527 19.7143 43.5527 18C43.5527 16.2857 44.9577 15 46.5787 15Z" fill="#E97522"/>
<path d="M24.8561 30C26.4771 30 27.8821 31.2857 27.8821 33C27.8821 34.6071 26.5852 36 24.8561 36C23.235 36 21.8301 34.7143 21.8301 33C21.8301 31.2857 23.1269 30 24.8561 30Z" fill="#E97522"/>
<path d="M24.8561 15C26.4771 15 27.8821 16.2857 27.8821 18C27.8821 19.6071 26.5852 21 24.8561 21C23.235 21 21.8301 19.7143 21.8301 18C21.8301 16.2857 23.1269 15 24.8561 15Z" fill="#E97522"/>
<path d="M24.8561 0C26.4771 0 27.8821 1.28571 27.8821 3C27.8821 4.60714 26.5852 6 24.8561 6C23.235 6 21.8301 4.71429 21.8301 3C21.8301 1.28571 23.1269 0 24.8561 0Z" fill="#E97522"/>
<path d="M3.02599 30C4.64706 30 6.05198 31.2857 6.05198 33C6.05198 34.6071 4.75513 36 3.02599 36C1.40493 36 0 34.7143 0 33C0.108071 31.2857 1.40493 30 3.02599 30Z" fill="#E97522"/>
<path d="M3.02599 15C4.64706 15 6.05198 16.2857 6.05198 18C6.05198 19.6071 4.75513 21 3.02599 21C1.40493 21 0 19.7143 0 18C0.108071 16.2857 1.40493 15 3.02599 15Z" fill="#E97522"/>
</svg>
