<svg width="21" height="20" viewBox="0 0 21 20" fill="none" xmlns="http://www.w3.org/2000/svg">
<path d="M7.25258 9.3415C6.88889 8.92586 6.25713 8.88374 5.8415 9.24742C5.42586 9.61111 5.38374 10.2429 5.74742 10.6585L7.25258 9.3415ZM10 14L9.24742 14.6585C9.45074 14.8909 9.75 15.0163 10.0582 14.9983C10.3665 14.9803 10.6491 14.821 10.824 14.5665L10 14ZM16.324 6.56653C16.6369 6.11142 16.5216 5.48884 16.0665 5.17596C15.6114 4.86307 14.9888 4.97837 14.676 5.43347L16.324 6.56653ZM5.74742 10.6585L9.24742 14.6585L10.7526 13.3415L7.25258 9.3415L5.74742 10.6585ZM10.824 14.5665L16.324 6.56653L14.676 5.43347L9.17596 13.4335L10.824 14.5665Z" fill="#ED6C21"/>
<rect x="1.5" y="1" width="18" height="18" rx="2" stroke="#ED6C21" stroke-width="2"/>
</svg>
