<svg width="94" height="36" viewBox="0 0 94 36" fill="none" xmlns="http://www.w3.org/2000/svg">
<path d="M90.023 30C91.6441 30 93.049 31.2857 93.049 33C93.049 34.6071 91.7522 36 90.023 36C88.402 36 86.9971 34.7143 86.9971 33C87.1051 31.2857 88.402 30 90.023 30Z" fill="#E97522"/>
<path d="M68.3014 30C69.9225 30 71.3274 31.2857 71.3274 33C71.3274 34.6071 70.0305 36 68.3014 36C66.6803 36 65.2754 34.7143 65.2754 33C65.3835 31.2857 66.6803 30 68.3014 30Z" fill="#E97522"/>
<path d="M46.5787 30C48.1998 30 49.6047 31.2857 49.6047 33C49.6047 34.6071 48.3079 36 46.5787 36C44.8496 36 43.5527 34.7143 43.5527 33C43.5527 31.2857 44.9577 30 46.5787 30Z" fill="#E97522"/>
<path d="M68.026 15C69.647 15 71.052 16.2857 71.052 18C71.052 19.6071 69.7551 21 68.026 21C66.2968 21 65 19.7143 65 18C65 16.2857 66.4049 15 68.026 15Z" fill="#E97522"/>
<path d="M24.8561 30C26.4771 30 27.8821 31.2857 27.8821 33C27.8821 34.6071 26.5852 36 24.8561 36C23.235 36 21.8301 34.7143 21.8301 33C21.8301 31.2857 23.1269 30 24.8561 30Z" fill="#E97522"/>
<path d="M68.026 0C69.6471 0 71.052 1.28571 71.052 3C71.052 4.60714 69.7551 6 68.026 6C66.4049 6 65 4.71429 65 3C65 1.28571 66.2968 0 68.026 0Z" fill="#E97522"/>
<path d="M90.026 15C91.6471 15 93.052 16.2857 93.052 18C93.052 19.6071 91.7551 21 90.026 21C88.4049 21 87 19.7143 87 18C87 16.2857 88.2968 15 90.026 15Z" fill="#E97522"/>
<path d="M3.02599 30C4.64706 30 6.05198 31.2857 6.05198 33C6.05198 34.6071 4.75513 36 3.02599 36C1.40493 36 0 34.7143 0 33C0.108071 31.2857 1.40493 30 3.02599 30Z" fill="#E97522"/>
<path d="M3.02599 15C4.64706 15 6.05198 16.2857 6.05198 18C6.05198 19.6071 4.75513 21 3.02599 21C1.40493 21 0 19.7143 0 18C0.108071 16.2857 1.40493 15 3.02599 15Z" fill="#E97522"/>
<path d="M3.02599 0C4.64706 0 6.05198 1.28571 6.05198 3C6.05198 4.60714 4.75513 6 3.02599 6C1.40493 6 0 4.71429 0 3C0.108071 1.28571 1.40493 0 3.02599 0Z" fill="#E97522"/>
<path d="M25.026 15C26.6471 15 28.052 16.2857 28.052 18C28.052 19.6071 26.7551 21 25.026 21C23.4049 21 22 19.7143 22 18C22.1081 16.2857 23.4049 15 25.026 15Z" fill="#E97522"/>
</svg>
