<svg width="94" height="36" viewBox="0 0 94 36" fill="none" xmlns="http://www.w3.org/2000/svg">
<path d="M90.023 30C91.6441 30 93.049 31.2857 93.049 33C93.049 34.6071 91.7522 36 90.023 36C88.402 36 86.9971 34.7143 86.9971 33C87.1051 31.2857 88.402 30 90.023 30Z" fill="#E97522"/>
<path d="M68.3014 30C69.9225 30 71.3274 31.2857 71.3274 33C71.3274 34.6071 70.0305 36 68.3014 36C66.6803 36 65.2754 34.7143 65.2754 33C65.3835 31.2857 66.6803 30 68.3014 30Z" fill="#E97522"/>
<path d="M46.5787 30C48.1998 30 49.6047 31.2857 49.6047 33C49.6047 34.6071 48.3079 36 46.5787 36C44.8496 36 43.5527 34.7143 43.5527 33C43.5527 31.2857 44.9577 30 46.5787 30Z" fill="#E97522"/>
<path d="M90.026 15C91.647 15 93.052 16.2857 93.052 18C93.052 19.6071 91.7551 21 90.026 21C88.2968 21 87 19.7143 87 18C87 16.2857 88.4049 15 90.026 15Z" fill="#E97522"/>
<path d="M24.8561 30C26.4771 30 27.8821 31.2857 27.8821 33C27.8821 34.6071 26.5852 36 24.8561 36C23.235 36 21.8301 34.7143 21.8301 33C21.8301 31.2857 23.1269 30 24.8561 30Z" fill="#E97522"/>
<path d="M68.026 15C69.6471 15 71.052 16.2857 71.052 18C71.052 19.6071 69.7551 21 68.026 21C66.4049 21 65 19.7143 65 18C65 16.2857 66.2968 15 68.026 15Z" fill="#E97522"/>
<path d="M90.026 0C91.6471 0 93.052 1.28571 93.052 3C93.052 4.60714 91.7551 6 90.026 6C88.4049 6 87 4.71429 87 3C87 1.28571 88.2968 0 90.026 0Z" fill="#E97522"/>
<path d="M3.02599 30C4.64706 30 6.05198 31.2857 6.05198 33C6.05198 34.6071 4.75513 36 3.02599 36C1.40493 36 0 34.7143 0 33C0.108071 31.2857 1.40493 30 3.02599 30Z" fill="#E97522"/>
<path d="M47.026 15C48.6471 15 50.052 16.2857 50.052 18C50.052 19.6071 48.7551 21 47.026 21C45.4049 21 44 19.7143 44 18C44.1081 16.2857 45.4049 15 47.026 15Z" fill="#E97522"/>
</svg>
