<svg width="94" height="37" viewBox="0 0 94 37" fill="none" xmlns="http://www.w3.org/2000/svg">
<path d="M90.023 30.5C91.6441 30.5 93.049 31.7857 93.049 33.5C93.049 35.1071 91.7522 36.5 90.023 36.5C88.402 36.5 86.9971 35.2143 86.9971 33.5C87.1051 31.7857 88.402 30.5 90.023 30.5Z" fill="#E97522"/>
<path d="M90.026 15.5C91.647 15.5 93.0519 16.7857 93.0519 18.5C93.0519 20.1071 91.7551 21.5 90.026 21.5C88.4049 21.5 87 20.2143 87 18.5C87.1081 16.7857 88.4049 15.5 90.026 15.5Z" fill="#E97522"/>
<path d="M68.3014 30.5C69.9225 30.5 71.3274 31.7857 71.3274 33.5C71.3274 35.1071 70.0305 36.5 68.3014 36.5C66.6803 36.5 65.2754 35.2143 65.2754 33.5C65.3835 31.7857 66.6803 30.5 68.3014 30.5Z" fill="#E97522"/>
<path d="M46.5787 30.5C48.1998 30.5 49.6047 31.7857 49.6047 33.5C49.6047 35.1071 48.3079 36.5 46.5787 36.5C44.8496 36.5 43.5527 35.2143 43.5527 33.5C43.5527 31.7857 44.9577 30.5 46.5787 30.5Z" fill="#E97522"/>
<path d="M46.5787 15.5C48.1998 15.5 49.6047 16.7857 49.6047 18.5C49.6047 20.1071 48.3079 21.5 46.5787 21.5C44.8496 21.5 43.5527 20.2143 43.5527 18.5C43.5527 16.7857 44.9577 15.5 46.5787 15.5Z" fill="#E97522"/>
<path d="M46.5787 0.5C48.1998 0.5 49.6047 1.78571 49.6047 3.5C49.6047 5.10714 48.3079 6.5 46.5787 6.5C44.8496 6.5 43.5527 5.21429 43.5527 3.5C43.5527 1.78571 44.9577 0.5 46.5787 0.5Z" fill="#E97522"/>
<path d="M24.8561 30.5C26.4771 30.5 27.8821 31.7857 27.8821 33.5C27.8821 35.1071 26.5852 36.5 24.8561 36.5C23.235 36.5 21.8301 35.2143 21.8301 33.5C21.8301 31.7857 23.1269 30.5 24.8561 30.5Z" fill="#E97522"/>
<path d="M3.02599 30.5C4.64706 30.5 6.05198 31.7857 6.05198 33.5C6.05198 35.1071 4.75513 36.5 3.02599 36.5C1.40493 36.5 0 35.2143 0 33.5C0.108071 31.7857 1.40493 30.5 3.02599 30.5Z" fill="#E97522"/>
<path d="M3.02599 15.5C4.64706 15.5 6.05198 16.7857 6.05198 18.5C6.05198 20.1071 4.75513 21.5 3.02599 21.5C1.40493 21.5 0 20.2143 0 18.5C0.108071 16.7857 1.40493 15.5 3.02599 15.5Z" fill="#E97522"/>
</svg>
