<svg width="367" height="580" viewBox="0 0 367 580" fill="none" xmlns="http://www.w3.org/2000/svg">
<path d="M145.042 551.902C145.042 551.902 142.821 560.901 142.751 564.161C142.68 567.421 178.558 571.965 179.117 569.564C179.675 567.162 173.669 562.79 169.333 561.07C164.997 559.349 152.277 554.665 152.277 554.665L145.042 551.902Z" fill="#EB7324"/>
<path d="M154.511 543.512L152.454 554.758C152.454 554.758 148.049 557.187 144.535 554.758L143.679 542.27L154.511 543.512Z" fill="url(#paint0_linear_5245_43846)"/>
<path d="M79.6073 561.535C79.6073 561.535 77.3868 570.533 77.3162 573.794C77.2455 577.054 113.124 581.599 113.682 579.196C114.24 576.794 108.234 572.423 103.898 570.702C99.5621 568.982 86.8428 564.298 86.8428 564.298L79.6073 561.535Z" fill="#EB7324"/>
<path d="M89.0762 553.145L87.0189 564.39C87.0189 564.39 82.6146 566.82 79.0998 564.39L78.2449 551.902L89.0762 553.145Z" fill="url(#paint1_linear_5245_43846)"/>
<path d="M171.694 247.004C175.181 255.777 178.667 264.549 182.153 273.321C181.642 321.748 179.109 374.248 173.553 430.165C169.419 471.768 164.03 511.06 157.862 547.853C152.239 547.143 146.616 546.431 140.993 545.72C134.13 528.869 126.463 503.559 128.004 473.197C129.61 441.527 139.526 438.1 141.342 407.799C143.697 368.526 128.093 356.747 123.113 308.881C121.208 290.576 120.84 266.836 125.812 238.469C141.106 241.314 156.4 244.159 171.694 247.004Z" fill="#738595"/>
<path style="mix-blend-mode:multiply" opacity="0.3" d="M125.811 238.469C134.071 240.005 142.331 241.542 150.591 243.08C163.494 270.373 165.504 297.867 161.91 309.668C156.826 326.366 146.542 331.021 145.716 348.129C144.899 365.056 154.496 370.232 159.211 390.638C162.475 404.766 160.308 417.342 155.837 441.918C146.833 491.421 133.56 505.717 142.343 522.888C144.838 527.767 149.562 533.717 159.349 538.756C158.856 541.796 158.366 544.847 157.862 547.853C152.239 547.144 146.616 546.432 140.993 545.72C134.13 528.868 126.462 503.559 128.003 473.197C129.61 441.527 139.525 438.099 141.342 407.799C143.696 368.526 128.093 356.748 123.112 308.881C121.208 290.576 120.84 266.837 125.811 238.469Z" fill="#7E7E83"/>
<path d="M148.083 260.402C136.856 302.383 126.3 347.431 117.04 395.36C105.859 453.231 97.9776 508.003 92.5177 559.004C86.3092 558.684 80.1008 558.363 73.8923 558.041C53.3524 507.797 54.4845 474.939 59.7121 453.906C61.7263 445.801 66.7004 429.99 69.4701 405.988C71.4004 389.256 71.3534 376.401 71.2463 360.944C71.0121 327.054 68.043 319.422 69.5947 293.638C71.0503 269.44 71.9309 257.208 79.3992 250.625C99.0754 233.282 144.631 258.451 148.083 260.402Z" fill="#738595"/>
<path d="M328.337 162.872C328.337 162.872 341.977 161.703 343.95 159.492C345.923 157.28 348.921 153.739 349.217 151.712C349.512 149.685 352.147 152.713 349.759 157.109C347.37 161.506 354.148 160.575 355.205 160.468C357.638 160.224 366.915 159.952 366.648 160.526C366.38 161.101 367.749 163.639 361.16 166.625C355.392 169.238 348.526 167.537 344.776 167.717L341.027 167.896L331.082 168.655L328.337 162.872Z" fill="url(#paint2_linear_5245_43846)"/>
<path d="M336.333 156.499C336.933 161.046 337.534 165.593 338.135 170.139C329.101 177.675 309.128 192.12 281.34 194.286C232.354 198.107 183.774 161.852 174.73 121.075C170.251 100.88 173.91 72.5464 186.46 67.9901C189.944 66.7249 195.178 66.9047 205.968 74.1537C234.764 93.4968 237.213 118.901 253.121 136.085C264.57 148.452 287.081 160.981 336.333 156.499Z" fill="#3B73A5"/>
<path d="M186.202 282.341C192.926 272.969 186.232 262.873 186.031 244.08C185.802 222.78 194.23 219.911 205.095 185.513C212.32 162.636 219.256 140.673 215.216 113.99C213.28 101.202 209.996 79.5129 193.201 67.8178C184.533 61.7827 172.076 61.3184 147.516 60.6385C117.144 59.7963 101.958 59.3748 90.2042 64.4101C88.4837 65.1475 52.6776 81.0607 47.8783 111.292C42.9931 142.061 76.3784 148.924 77.5669 190.573C78.1004 209.27 72.2175 237.489 68.4022 255.792C64.7387 273.366 62.8324 277.788 65.9052 283.444C73.3113 297.076 99.4594 295.454 151.756 292.215C172.27 290.944 181.184 289.335 186.202 282.341Z" fill="#3B73A5"/>
<path style="mix-blend-mode:multiply" opacity="0.3" d="M114.678 186.863C111.847 194.735 103.502 200.115 96.4599 219.251C94.9395 223.383 84.1112 252.803 94.4354 261.086C100.399 265.87 106.71 258.218 122.1 258.386C148.769 258.676 159.617 281.979 177.429 277.28C180.52 276.464 184.669 274.53 189.045 269.673C189.461 274.399 189.001 278.438 186.201 282.341C181.184 289.335 172.269 290.944 151.756 292.215C99.459 295.455 73.3109 297.076 65.9048 283.444C62.8319 277.788 64.7383 273.366 68.4018 255.792C72.2171 237.489 78.1001 209.27 77.5665 190.573C76.378 148.924 42.9927 142.061 47.8779 111.292C49.1836 103.066 52.8192 95.94 57.4045 89.8516C98.7916 110.588 123.576 162.126 114.678 186.863Z" fill="black"/>
<path d="M148.375 30.0088C148.375 30.0088 146.964 41.2388 142.788 49.3989C139.015 56.7739 122.001 60.2367 118.494 61.6692C114.986 63.1016 124.274 68.8553 133.923 70.6129C143.572 72.3705 171.529 72.3877 176.832 69.1013C182.135 65.8149 173.081 65.3688 166.342 62.2633C159.603 59.1583 156.677 45.2579 158.396 39.1929C160.116 33.1278 148.375 30.0088 148.375 30.0088Z" fill="url(#paint3_linear_5245_43846)"/>
<path d="M164.089 27.1552C169.533 22.6006 170.284 22.0779 170.972 20.4078C173.729 13.7046 169.148 3.85505 162.334 0.974764C161.98 0.825374 157.407 -1.05351 155.452 0.839534C153.791 2.4468 155.839 5.01475 154.507 8.26222C153.26 11.3027 150.536 11.3195 145.196 15.0096C140.796 18.0483 138.061 19.9377 137.233 22.8371C135.526 28.8147 142.174 38.209 148.704 38.4912C151.052 38.5925 151.785 37.4478 164.089 27.1552Z" fill="#474748"/>
<path d="M149.266 39.4804C149.266 39.4804 154.144 45.9853 162.478 44.6319C169.94 43.4204 169.419 26.4756 164.278 23.3632C162.564 22.3255 159.311 22.1391 156.776 23.1199C155.278 23.6994 154.819 24.3892 152.354 25.2887C150.08 26.1177 149.395 25.9225 148.749 26.5833C147.94 27.4089 147.47 29.2878 149.414 34.0695C147.842 32.7563 146.068 32.3657 144.906 33.0577C144.51 33.3239 144.197 33.6945 143.999 34.1284C143.135 36.1532 145.128 38.4403 149.266 39.4804Z" fill="url(#paint4_linear_5245_43846)"/>
<path d="M55.4911 249.802L55.7719 243.437L63.8916 249.587C65.5711 247.936 69.4147 244.641 75.0669 243.864C81.4362 242.99 88.4614 245.538 88.4687 247.549C88.4744 249.16 83.9703 250.423 83.2744 250.619C82.9824 250.701 82.6975 250.768 82.4155 250.831C84.3756 252.184 85.2813 253.814 83.6826 255.687C78.6951 261.528 63.8675 256.17 63.3417 256.044L63.3445 256.039C59.8592 255.011 55.8964 250.294 55.4911 249.802Z" fill="url(#paint5_linear_5245_43846)"/>
<path d="M62.396 248.527C62.396 248.527 72.2527 245.867 70.3781 249.314C68.5035 252.761 64.6938 253.909 64.6938 253.909C64.6938 253.909 56.8931 252.216 62.396 248.527Z" fill="url(#paint6_linear_5245_43846)"/>
<path d="M90.049 133.22C97.428 118.889 103.536 96.5311 96.4595 62.0337C29.9949 82.2586 -7.68745 139.811 1.31975 188.549C8.74468 228.728 45.6894 250.969 53.9501 255.687C56.3116 251.301 58.6732 246.915 61.0349 242.53C51.9749 230.655 42.0779 213.378 45.1612 194.814C49.4351 169.078 75.1097 162.234 90.049 133.22Z" fill="#3B73A5"/>
<path d="M182.503 236.089L48.6292 234.09L84.2281 251.271L182.845 244.817L182.503 236.089Z" fill="#565656"/>
<path d="M43.9046 237.648V237.649C43.9047 238.872 44.2812 240.065 44.9829 241.067C45.6846 242.069 46.6775 242.83 47.8269 243.248L90.6039 260.018L90.7988 248.392L48.6294 234.09C48.0783 233.932 47.4978 233.904 46.9338 234.008C46.3699 234.112 45.8378 234.346 45.3797 234.691C44.9215 235.036 44.5498 235.483 44.2938 235.996C44.0379 236.509 43.9046 237.075 43.9046 237.648Z" fill="#1F1F1F"/>
<path d="M94.35 166.817L84.9135 252.737C84.5879 255.701 88.7383 260.118 91.7174 259.977L230.15 251.479C231.254 251.427 232.307 250.999 233.135 250.267C233.963 249.535 234.516 248.542 234.703 247.452L252.079 164.469C252.597 161.449 247.169 158.331 244.106 158.416L99.0376 162.495C97.866 162.528 96.746 162.984 95.8844 163.778C95.0227 164.573 94.4777 165.652 94.35 166.817Z" fill="#EB7324"/>
<path d="M97.5135 169.322L88.0768 255.243C88.0003 255.94 88.0757 256.645 88.298 257.311C88.5203 257.976 88.8842 258.585 89.3645 259.096C89.8448 259.607 90.4302 260.008 91.0803 260.271C91.7305 260.535 92.4299 260.654 93.1306 260.621L233.314 253.984C234.418 253.932 235.471 253.504 236.299 252.772C237.127 252.04 237.68 251.047 237.867 249.958L252.189 166.595C252.311 165.887 252.274 165.161 252.081 164.469C251.888 163.777 251.543 163.136 251.073 162.594C250.602 162.051 250.017 161.619 249.359 161.33C248.701 161.041 247.988 160.902 247.269 160.922L102.201 165.001C101.029 165.034 99.9095 165.489 99.0479 166.284C98.1862 167.078 97.6412 168.157 97.5135 169.322Z" fill="#474748"/>
<path style="mix-blend-mode:multiply" opacity="0.4" d="M179.83 233.851C167.59 228.663 171.91 218.77 157.456 206.442C138.387 190.18 118.951 197.233 112.147 184.627C110.028 180.701 109.016 174.593 112.707 164.705L102.202 165.001C101.031 165.033 99.9106 165.489 99.049 166.283C98.1873 167.078 97.6423 168.157 97.5146 169.322L88.0779 255.242C88.0014 255.94 88.077 256.645 88.2994 257.31C88.5217 257.975 88.8855 258.585 89.3658 259.096C89.8461 259.607 90.4315 260.008 91.0815 260.271C91.7316 260.534 92.431 260.654 93.1316 260.621L233.315 253.984C234.419 253.932 235.472 253.504 236.3 252.772C237.128 252.04 237.681 251.047 237.868 249.958L239.845 238.454C235.082 235.77 229.932 233.84 224.578 232.732C204.012 228.561 193.922 239.824 179.83 233.851Z" fill="url(#paint7_linear_5245_43846)"/>
<defs>
<linearGradient id="paint0_linear_5245_43846" x1="111927" y1="-49376.6" x2="116058" y2="-55312.4" gradientUnits="userSpaceOnUse">
<stop stop-color="#FCB7B4"/>
<stop offset="1" stop-color="#FEB3B1"/>
</linearGradient>
<linearGradient id="paint1_linear_5245_43846" x1="111860" y1="-49367.6" x2="115992" y2="-55303.4" gradientUnits="userSpaceOnUse">
<stop stop-color="#FCB7B4"/>
<stop offset="1" stop-color="#FEB3B1"/>
</linearGradient>
<linearGradient id="paint2_linear_5245_43846" x1="395759" y1="-64550.1" x2="398494" y2="-75273.3" gradientUnits="userSpaceOnUse">
<stop stop-color="#FCB7B4"/>
<stop offset="1" stop-color="#FEB3B1"/>
</linearGradient>
<linearGradient id="paint3_linear_5245_43846" x1="626460" y1="-153691" x2="635514" y2="-177362" gradientUnits="userSpaceOnUse">
<stop stop-color="#FCB7B4"/>
<stop offset="1" stop-color="#FEB3B1"/>
</linearGradient>
<linearGradient id="paint4_linear_5245_43846" x1="251086" y1="-82173.5" x2="256962" y2="-93682.5" gradientUnits="userSpaceOnUse">
<stop stop-color="#FCB7B4"/>
<stop offset="1" stop-color="#FEB3B1"/>
</linearGradient>
<linearGradient id="paint5_linear_5245_43846" x1="340393" y1="-54839.2" x2="342699" y2="-63980.3" gradientUnits="userSpaceOnUse">
<stop stop-color="#FCB7B4"/>
<stop offset="1" stop-color="#FEB3B1"/>
</linearGradient>
<linearGradient id="paint6_linear_5245_43846" x1="105167" y1="-23159.3" x2="106447" y2="-26846.6" gradientUnits="userSpaceOnUse">
<stop stop-color="#FCB7B4"/>
<stop offset="1" stop-color="#FEB3B1"/>
</linearGradient>
<linearGradient id="paint7_linear_5245_43846" x1="-43733.4" y1="51015.5" x2="-101173" y2="51015.5" gradientUnits="userSpaceOnUse">
<stop stop-color="#292929"/>
<stop offset="0.9964" stop-color="#3C3B6B"/>
</linearGradient>
</defs>
</svg>
