<svg width="243" height="553" viewBox="0 0 243 553" fill="none" xmlns="http://www.w3.org/2000/svg">
<path d="M172.047 527.023C172.775 524.723 185.722 522.641 192.133 525.722C195.316 527.252 197.508 530.353 195.667 531.754C194.996 532.263 197.741 533.159 195.111 533.177C186.39 533.235 171.323 529.309 172.047 527.023Z" fill="#306694"/>
<path d="M189.984 526.863L198.042 527.265C195.25 522.19 198.607 508.385 198.607 508.385L189.906 508.641C189.906 508.641 190.12 512.648 190.65 518.601C190.832 520.639 190.497 523.709 189.984 526.863Z" fill="#FEBBB8"/>
<path d="M188.924 526.742C188.924 526.742 198.541 524.526 199.581 526.433C200.622 528.341 201.429 533.449 195.327 533.284C189.226 533.12 188.381 528.359 188.924 526.742Z" fill="#244F74"/>
<path d="M70.3316 543.464C71.6162 541.062 84.971 539.955 90.5788 543.816C93.3627 545.732 94.7799 549.247 92.6099 550.588C91.8206 551.077 94.324 552.276 91.7108 552.066C83.0439 551.371 69.055 545.851 70.3316 543.464Z" fill="#306694"/>
<path d="M88.9414 546.532L96.8578 548.085C94.8232 542.662 100.125 529.482 100.125 529.482L91.4779 528.486C91.4779 528.486 91.1146 532.483 90.7861 538.451C90.673 540.494 89.9014 543.484 88.9414 546.532Z" fill="#FEBBB8"/>
<path d="M86.8686 545.229C86.8686 545.229 96.7018 544.381 97.4646 546.416C98.2277 548.45 98.3126 553.621 92.2937 552.603C86.2748 551.586 86.1054 546.754 86.8686 545.229Z" fill="#244F74"/>
<path d="M159.6 267.878C161.756 304.744 164.837 343.037 168.842 382.756C173.553 428.719 179.277 472.636 185.695 514.376C193.606 517.089 200.918 514.376 200.918 514.376C200.918 514.376 210.168 499.225 217.227 458.957C221.757 433.12 222.069 433.445 222.12 428.938C222.376 406.199 214.399 399.616 212.878 379.292C211.471 360.488 217.456 354.856 221.033 333.687C223.783 317.409 224.814 293.687 216.14 262.682C197.293 264.414 178.446 266.146 159.6 267.878Z" fill="#474748"/>
<path style="mix-blend-mode:multiply" opacity="0.3" d="M159.6 267.877C161.756 304.744 164.837 343.037 168.842 382.756C173.553 428.719 179.277 472.636 185.695 514.375C193.606 517.088 200.917 514.375 200.917 514.375C200.817 510.512 200.547 504.69 199.741 497.658C197.601 479.005 194.19 473.698 193.84 462.251C193.392 447.612 198.692 447.162 199.741 432.746C201.366 410.401 189.097 405.102 187.938 385.537C186.715 364.865 199.659 358.062 209.576 332.428C215.43 317.295 220.626 294.576 216.14 262.682C197.293 264.414 178.446 266.145 159.6 267.877Z" fill="#474748"/>
<path d="M119.913 266.723C94.1391 353.731 83.8345 444.587 89.4683 535.157C92.9117 536.12 96.3548 537.082 99.7977 538.044C119.819 517.096 126.967 497.842 129.699 483.78C133.74 462.978 127.651 455.924 132.961 432.402C134.182 426.991 135.901 421.179 155.794 382.179C174.781 344.956 178.674 339.55 181.89 326.183C186.48 307.102 185.269 290.181 183.521 278.846C162.318 274.805 141.116 270.764 119.913 266.723Z" fill="#474748"/>
<path d="M34.5369 187.855L0.561806 108.268C0.162855 107.334 -0.0277464 106.324 0.00325786 105.308C0.0342622 104.292 0.286128 103.296 0.741339 102.387C1.19655 101.479 1.84418 100.68 2.6392 100.048C3.43421 99.4148 4.35753 98.9628 5.34494 98.7229L67.5801 83.6087C69.2076 83.2135 70.923 83.4153 72.4144 84.1773C73.9058 84.9394 75.0743 86.2112 75.7077 87.7617L106.958 164.254C107.325 165.154 107.501 166.121 107.475 167.093C107.448 168.064 107.219 169.02 106.802 169.899C106.385 170.777 105.79 171.559 105.054 172.195C104.318 172.83 103.458 173.305 102.528 173.59L43.0186 191.798C41.3674 192.303 39.5877 192.18 38.0219 191.452C36.4562 190.724 35.2149 189.443 34.5369 187.855Z" fill="#393939"/>
<path d="M36.0741 184.027L4.33857 109.687C3.96598 108.814 3.78801 107.871 3.81702 106.922C3.84603 105.973 4.08133 105.043 4.50656 104.194C4.93179 103.345 5.53674 102.6 6.27935 102.009C7.02196 101.418 7.8844 100.995 8.8067 100.771L66.9388 86.6539C68.4589 86.2846 70.0611 86.473 71.4542 87.1848C72.8473 87.8966 73.9388 89.0845 74.5304 90.5327L103.72 161.982C104.063 162.822 104.228 163.726 104.203 164.633C104.178 165.541 103.964 166.434 103.574 167.255C103.185 168.075 102.629 168.805 101.942 169.399C101.254 169.993 100.451 170.436 99.5823 170.702L43.9962 187.71C42.454 188.182 40.7917 188.067 39.3292 187.387C37.8668 186.707 36.7074 185.51 36.0741 184.027Z" fill="#FF9B54"/>
<path d="M16.4826 162.174L15.4631 152.796L10.0598 142.495C9.32379 141.092 8.93934 139.532 8.93945 137.948V127.719L15.4632 142.806C15.4632 142.806 19.7447 138.932 21.3756 138.117C23.0066 137.301 22.8026 140.563 21.5796 141.787C20.3563 143.009 22.1912 152.999 20.968 154.019L21.3757 160.135L16.4826 162.174Z" fill="url(#paint0_linear_5245_43824)"/>
<path d="M68.2664 102.439C73.3398 90.0331 84.2297 82.8982 89.8767 79.1981C103.238 70.4438 111.792 72.0419 142.475 67.3736C183.368 61.1517 188.262 55.2561 202.006 60.0342C220.059 66.3103 229.489 82.6978 233.81 90.2072C255.595 128.066 230.125 147.309 236.664 222.724C239.335 253.523 246.182 280.288 229.732 296.117C226.269 299.45 222.395 301.193 214.646 304.679C183.916 318.507 156.364 316.123 139.621 314.465C121.198 312.641 111.887 311.596 107.002 305.087C99.1989 294.69 107.231 281.475 108.633 258.605C109.639 242.185 105.906 229.174 98.4394 203.152C81.0813 142.656 58.5461 126.208 68.2664 102.439Z" fill="#47A7E3"/>
<path d="M136.713 45.057C134.851 38.4245 138.106 32.2823 138.823 30.9588C141.827 25.4179 142.596 24.6609 144.029 23.7013L146.021 22.4724C146.021 22.4724 146.136 22.4261 146.258 22.3827C147.536 21.9277 151.893 21.7953 152.776 21.984C155.595 22.5859 158.598 34.0731 157.741 50.3134C157.858 50.9322 157.971 51.5563 158.08 52.1857C158.524 54.7507 158.88 57.2629 159.149 59.7223C159.41 62.0732 162.744 62.0194 165.104 61.8687C174.686 61.2572 179.375 62.0727 179.783 63.4996C180.547 66.1738 169.182 74.9166 155.148 76.8832C136.314 77.0234 120.992 75.018 122.639 72.0521C123.37 70.7354 137.963 66.9221 142.068 63.143C145.825 59.6819 145.519 56.1093 145.828 53.5514C144.689 52.9602 138.083 49.9433 136.713 45.057Z" fill="#FEBBB9"/>
<path d="M140.177 17.8593C140.194 22.8905 142.564 28.264 143.772 29.1274C144.483 29.6881 145.099 30.3603 145.594 31.118C145.715 31.303 145.812 31.5028 145.881 31.7126C146.983 34.883 141.942 38.6141 142.915 40.034C143.621 41.0639 147.047 39.6867 147.455 40.5762C147.838 41.4128 144.991 43.1461 145.427 44.1483C145.756 44.9051 147.508 44.2128 148.613 45.3721C149.164 45.9495 149.003 46.407 149.586 48.1723C149.886 49.1051 150.27 50.0083 150.736 50.8704C152.475 53.8247 157.399 54.9037 158.347 53.7216C158.611 53.3919 158.384 53.1151 158.654 52.0094C158.872 51.2325 159.196 50.4891 159.616 49.8002C160.635 48.1074 163.094 46.8969 165.575 45.1103C170.17 41.8013 171.419 38.9805 171.794 38.0277C171.928 37.6883 172.01 37.4321 172.07 37.2474C173.265 33.5389 173.27 28.0918 171.603 24.7418C168.81 19.1302 162.51 21.7945 157.353 16.2342C151.403 9.81905 154.947 1.05055 151.718 0.0820289C148.159 -0.985702 140.146 8.55622 140.177 17.8593Z" fill="#292929"/>
<path d="M144.724 38.8514C145.957 37.157 148.124 38.7492 148.136 40.9415C148.149 43.1338 146.025 45.4128 143.964 44.98C141.903 44.5472 143.064 41.1322 144.724 38.8514Z" fill="#FEBBB8"/>
<path d="M145.723 35.1838L142.862 38.9055C142.862 38.9055 139.778 43.4649 137.978 40.9672C136.507 38.9262 136.126 38.9716 136.036 39.0572C136.019 39.0732 136.014 39.098 136.01 39.0967C135.984 39.0898 136.225 38.0808 136.442 37.1941C135.328 38.7894 134.5 40.5669 133.996 42.4468C133.378 44.7643 132.717 47.2459 134.024 49.6297C134.1 49.7672 135.54 52.3047 138.23 52.9183C138.23 52.9183 139.288 53.1597 143.757 52.3743C143.757 52.3743 138.872 48.8296 138.797 47.9876C138.595 45.6978 141.77 44.4604 144.128 39.7662C144.855 38.3138 145.391 36.7736 145.723 35.1838Z" fill="#292929"/>
<path style="mix-blend-mode:multiply" opacity="0.3" d="M155.523 292.855C150.103 282.063 163.385 267.717 154.708 251.265C147.339 237.292 133.952 240.422 127.797 227.616C120.363 212.148 136.531 200.588 135.952 177.056C135.26 148.925 111.054 120.765 96.8087 123.234C87.5919 124.832 86.4078 138.582 79.9229 153.635C85.661 166.218 92.3654 181.982 98.4395 203.152C105.906 229.174 109.639 242.185 108.633 258.605C107.232 281.475 99.1991 294.69 107.002 305.087C111.887 311.596 121.199 312.641 139.621 314.465C156.364 316.123 183.916 318.506 214.646 304.679C218.536 302.929 221.448 301.618 223.823 300.325C175.813 307.535 159.822 301.415 155.523 292.855Z" fill="url(#paint1_linear_5245_43824)"/>
<path d="M14.6479 160.338C17.6379 159.047 20.628 157.756 23.6182 156.465C28.6717 161.633 35.1174 166.659 40.5395 165.027C48.6217 162.595 46.6008 147.727 56.4414 121.603C67.5913 92.0034 80.2419 84.3954 86.6144 81.6442C90.1738 80.1075 92.631 79.0872 95.5847 79.8092C109.176 83.1315 113.669 118.548 109.856 145.048C107.707 159.979 103.494 189.255 79.4788 203.151C76.0673 205.126 57.2888 215.992 38.7047 207.433C22.828 200.121 13.0177 181.361 14.6479 160.338Z" fill="#47A7E3"/>
<defs>
<linearGradient id="paint0_linear_5245_43824" x1="753.664" y1="14562.7" x2="-1303.7" y2="18272.3" gradientUnits="userSpaceOnUse">
<stop stop-color="#FEBBB8"/>
<stop offset="0.9964" stop-color="#F36F56"/>
</linearGradient>
<linearGradient id="paint1_linear_5245_43824" x1="28138.3" y1="103964" x2="90197.4" y2="148224" gradientUnits="userSpaceOnUse">
<stop stop-color="#FF9085"/>
<stop offset="1" stop-color="#FB6FBB"/>
</linearGradient>
</defs>
</svg>
