<svg width="73" height="70" viewBox="0 0 73 70" fill="none" xmlns="http://www.w3.org/2000/svg">
<path d="M68.1499 32.0822C68.1499 50.9068 52.9785 67.1731 34.2209 68.4355C15.385 69.6868 0.0683594 55.3644 0.0683594 36.4169C0.0683594 17.4693 15.385 1.20303 34.2097 0.0635011C52.9785 -1.07603 68.1499 13.2575 68.1499 32.0822Z" fill="#303030"/>
<path d="M72.172 33.2882C72.172 52.1129 57.0005 68.3792 38.2429 69.6416C19.4071 70.904 4.10156 56.5704 4.10156 37.6341C4.10156 18.6977 19.4071 2.40909 38.2429 1.26956C57.0117 0.130022 72.172 14.4636 72.172 33.2882Z" fill="#47A7E3"/>
<path d="M37.0367 53.9456C35.562 54.0461 34.1879 53.3534 33.4282 52.1245L20.5917 31.5236C19.3851 29.5908 20.0331 26.9431 22.0329 25.6136C24.0326 24.2842 26.6245 24.7646 27.8311 26.6973L36.7351 40.9973L48.4767 17.0783C49.5269 14.9333 52.0629 13.9502 54.1297 14.8774C56.1965 15.8047 57.0233 18.296 55.9731 20.441L40.8017 51.3984C40.109 52.8172 38.7237 53.7891 37.1931 53.9456C37.1373 53.9456 37.0926 53.9456 37.0367 53.9456Z" fill="white"/>
</svg>
