<svg width="15" height="15" viewBox="0 0 15 15" fill="none" xmlns="http://www.w3.org/2000/svg">
<rect width="15" height="15" rx="2" fill="url(#paint0_linear_1682_2156)"/>
<path d="M4.74056 6.32801C4.36943 5.91901 3.73701 5.88831 3.32801 6.25944C2.91901 6.63057 2.88831 7.26299 3.25944 7.67199L4.74056 6.32801ZM6.72222 10L5.98166 10.672C6.185 10.8961 6.47888 11.016 6.78095 10.9983C7.08302 10.9805 7.3608 10.8269 7.53646 10.5805L6.72222 10ZM11.8142 4.58052C12.1349 4.13083 12.0302 3.50637 11.5805 3.18576C11.1308 2.86514 10.5064 2.96978 10.1858 3.41948L11.8142 4.58052ZM3.25944 7.67199L5.98166 10.672L7.46278 9.32801L4.74056 6.32801L3.25944 7.67199ZM7.53646 10.5805L11.8142 4.58052L10.1858 3.41948L5.90798 9.41948L7.53646 10.5805Z" fill="white"/>
<defs>
<linearGradient id="paint0_linear_1682_2156" x1="7.5" y1="0" x2="7.5" y2="15" gradientUnits="userSpaceOnUse">
<stop stop-color="#EE6E23"/>
<stop offset="1" stop-color="#E76519"/>
</linearGradient>
</defs>
</svg>
