<svg width="102" height="122" viewBox="0 0 102 122" fill="none" xmlns="http://www.w3.org/2000/svg">
<g opacity="0.8">
<g opacity="0.8">
<path opacity="0.8" d="M31.9623 15.4698L32.7156 15.6707C32.7658 15.6707 32.8662 15.6707 32.8662 15.5703C32.8662 15.5201 32.8662 15.4196 32.7658 15.4196L32.0125 15.2188C31.9623 15.2188 31.8618 15.2187 31.8618 15.3192C31.8618 15.3694 31.912 15.4698 31.9623 15.4698Z" fill="#51A3E0"/>
<path opacity="0.8" d="M34.4733 16.1724L35.2266 16.3733C35.3271 16.3733 35.3773 16.3733 35.4275 16.2728C35.4275 16.1724 35.4275 16.1222 35.3271 16.072L34.5738 15.8711C34.5235 15.8711 34.4231 15.8711 34.4231 15.9715C34.3729 16.072 34.4231 16.1724 34.4733 16.1724Z" fill="#51A3E0"/>
<path opacity="0.8" d="M36.9839 16.9263L37.7372 17.1774C37.8376 17.2276 37.8878 17.1774 37.9381 17.077C37.9883 16.9765 37.9381 16.9263 37.8376 16.8761L37.0843 16.625C36.9839 16.625 36.9337 16.625 36.8835 16.7254C36.8332 16.8259 36.8835 16.9263 36.9839 16.9263Z" fill="#51A3E0"/>
<path opacity="0.8" d="M39.4448 17.78L40.198 18.0311C40.2985 18.0813 40.3989 18.0311 40.3989 17.9307C40.3989 17.8302 40.3989 17.7298 40.2985 17.7298L39.5452 17.4787C39.4448 17.4285 39.3945 17.4787 39.3443 17.5791C39.2941 17.6293 39.3443 17.7298 39.4448 17.78Z" fill="#51A3E0"/>
<path opacity="0.8" d="M41.9058 18.6335L42.6591 18.8846C42.7595 18.9348 42.8599 18.8846 42.8599 18.7842C42.9102 18.6837 42.8599 18.5833 42.7595 18.5833L42.0062 18.3322C41.9058 18.282 41.8053 18.3322 41.8053 18.4326C41.7551 18.5331 41.8053 18.6335 41.9058 18.6335Z" fill="#51A3E0"/>
<path opacity="0.8" d="M44.3162 19.588L45.0192 19.8893C45.1197 19.9396 45.2201 19.8893 45.2703 19.7889C45.3206 19.6885 45.2703 19.588 45.1699 19.5378L44.4166 19.2365C44.3162 19.1863 44.2157 19.2365 44.1655 19.3369C44.1655 19.4374 44.2157 19.5378 44.3162 19.588Z" fill="#51A3E0"/>
<path opacity="0.8" d="M46.7263 20.5421L47.4294 20.8434C47.5298 20.8937 47.6303 20.8434 47.6805 20.743C47.7307 20.6426 47.6805 20.5421 47.5801 20.4919L46.877 20.1906C46.7765 20.1404 46.6761 20.1906 46.6259 20.291C46.5757 20.3915 46.6259 20.4919 46.7263 20.5421Z" fill="#51A3E0"/>
<path opacity="0.8" d="M49.0869 21.5968L49.79 21.8981C49.8904 21.9484 49.9909 21.8981 50.0411 21.7977C50.0913 21.6973 50.0411 21.5968 49.9407 21.5466L49.2376 21.2453C49.1371 21.1951 49.0367 21.2453 48.9865 21.3457C48.9363 21.4462 48.9865 21.5466 49.0869 21.5968Z" fill="#51A3E0"/>
<path opacity="0.8" d="M51.4466 22.7008L52.1497 23.0523C52.2501 23.1025 52.4008 23.0523 52.451 22.9518C52.5012 22.8514 52.451 22.7008 52.3506 22.6505L51.6475 22.299C51.5471 22.2488 51.3964 22.299 51.3462 22.3994C51.296 22.4999 51.3462 22.6505 51.4466 22.7008Z" fill="#51A3E0"/>
<path opacity="0.8" d="M53.8075 23.8062L54.5105 24.1578C54.611 24.208 54.7616 24.1578 54.8118 24.0573C54.8621 23.9569 54.8118 23.8062 54.7114 23.756L54.0083 23.4045C53.9079 23.3542 53.7572 23.4045 53.707 23.5049C53.6568 23.6053 53.707 23.756 53.8075 23.8062Z" fill="#51A3E0"/>
<path opacity="0.8" d="M56.1175 25.0113L56.8206 25.3628C56.921 25.4131 57.0717 25.3628 57.1219 25.2624C57.1721 25.162 57.1219 25.0113 57.0215 24.9611L56.3184 24.6095C56.218 24.5593 56.0673 24.6095 56.0171 24.71C55.9669 24.8104 55.9669 24.9611 56.1175 25.0113Z" fill="#51A3E0"/>
<path opacity="0.8" d="M58.3771 26.2666L59.0802 26.6683C59.1806 26.7186 59.3313 26.6683 59.4317 26.5679C59.4819 26.4675 59.4317 26.3168 59.3313 26.2164L58.6282 25.8146C58.5278 25.7644 58.3771 25.8146 58.2767 25.9151C58.2265 26.0155 58.2767 26.1662 58.3771 26.2666Z" fill="#51A3E0"/>
<path opacity="0.8" d="M60.6373 27.523L61.3404 27.9248C61.4408 27.975 61.6417 27.975 61.6919 27.8243C61.7421 27.7239 61.7421 27.523 61.5915 27.4728L60.9386 27.0711C60.8382 27.0208 60.6875 27.0208 60.5871 27.1715C60.4866 27.3221 60.5368 27.4728 60.6373 27.523Z" fill="#51A3E0"/>
<path opacity="0.8" d="M62.8469 28.8773L63.4998 29.279C63.6002 29.3795 63.8011 29.3292 63.8513 29.1786C63.9517 29.0781 63.9015 28.8773 63.7509 28.8271L63.098 28.4253C62.9976 28.3249 62.7967 28.3751 62.7465 28.5257C62.6963 28.6262 62.7465 28.7768 62.8469 28.8773Z" fill="#51A3E0"/>
<path opacity="0.8" d="M65.0565 30.2347L65.7093 30.6867C65.86 30.7871 66.0106 30.7369 66.1111 30.5862C66.2115 30.4356 66.1613 30.2849 66.0106 30.1845L65.3578 29.7827C65.2071 29.6823 65.0565 29.7325 64.956 29.8832C64.9058 29.9836 64.956 30.1845 65.0565 30.2347Z" fill="#51A3E0"/>
<path opacity="0.8" d="M67.2161 31.6908L67.8689 32.1427C68.0196 32.2432 68.1703 32.1929 68.2707 32.0925C68.3711 31.9418 68.3209 31.7912 68.2205 31.6908L67.5676 31.2388C67.417 31.1383 67.2663 31.1886 67.1659 31.3392C67.0654 31.4397 67.1157 31.5903 67.2161 31.6908Z" fill="#51A3E0"/>
<path opacity="0.8" d="M69.3755 33.1473L70.0284 33.5993C70.179 33.6998 70.3297 33.6495 70.4301 33.5491C70.5306 33.3984 70.4803 33.2478 70.3799 33.1473L69.727 32.6954C69.5764 32.5949 69.4257 32.6452 69.3253 32.7456C69.2249 32.8962 69.2249 33.0971 69.3755 33.1473Z" fill="#51A3E0"/>
<path opacity="0.8" d="M71.4846 34.704L72.0872 35.156C72.2379 35.2564 72.3885 35.2062 72.489 35.1057C72.5894 34.9551 72.5392 34.8044 72.4387 34.704L71.7859 34.252C71.6352 34.1516 71.4846 34.2018 71.3841 34.3022C71.3339 34.4027 71.3339 34.6035 71.4846 34.704Z" fill="#51A3E0"/>
<path opacity="0.8" d="M73.5435 36.2603L74.1462 36.7624C74.2968 36.8629 74.4475 36.8629 74.5479 36.7122C74.6484 36.5616 74.6484 36.4109 74.4977 36.3105L73.8951 35.8083C73.7444 35.7078 73.5938 35.7078 73.4933 35.8585C73.3929 35.9589 73.3929 36.1598 73.5435 36.2603Z" fill="#51A3E0"/>
<path opacity="0.8" d="M75.6025 37.8671L76.2051 38.3693C76.3557 38.4697 76.5566 38.4697 76.6571 38.3191C76.7575 38.1684 76.7575 37.9676 76.6068 37.8671L76.0042 37.3649C75.8535 37.2645 75.7029 37.2645 75.5522 37.4151C75.4518 37.5658 75.4518 37.7667 75.6025 37.8671Z" fill="#51A3E0"/>
<path opacity="0.8" d="M77.5614 39.5253L78.1641 40.0275C78.3147 40.1279 78.5156 40.1279 78.616 39.9773C78.7165 39.8266 78.7165 39.6258 78.5658 39.5253L77.9632 39.0231C77.8125 38.9227 77.6117 38.9227 77.5112 39.0733C77.4108 39.224 77.461 39.4249 77.5614 39.5253Z" fill="#51A3E0"/>
<path opacity="0.8" d="M79.57 41.2323L80.1726 41.7345C80.3233 41.835 80.5241 41.835 80.6246 41.6843C80.725 41.5337 80.725 41.3328 80.5744 41.2323L79.9717 40.7302C79.8211 40.6297 79.6202 40.6297 79.5198 40.7804C79.4193 40.8808 79.4193 41.0817 79.57 41.2323Z" fill="#51A3E0"/>
<path opacity="0.8" d="M81.4782 42.9394L82.0306 43.4918C82.1812 43.5923 82.3821 43.5923 82.4825 43.4918C82.583 43.3412 82.583 43.1403 82.4825 43.0398L81.9301 42.4874C81.7795 42.387 81.5786 42.387 81.4782 42.4874C81.3777 42.5879 81.3275 42.839 81.4782 42.9394Z" fill="#51A3E0"/>
<path opacity="0.8" d="M83.3364 44.7482L83.939 45.3006C84.0897 45.4513 84.2906 45.4011 84.391 45.3006C84.5417 45.15 84.4914 44.9491 84.391 44.8487L83.8386 44.2963C83.6879 44.1456 83.4871 44.1958 83.3866 44.2963C83.236 44.3967 83.236 44.5976 83.3364 44.7482Z" fill="#51A3E0"/>
<path opacity="0.8" d="M85.1945 46.5546L85.7469 47.107C85.8975 47.2577 86.0984 47.2577 86.2491 47.107C86.3997 46.9564 86.3997 46.7555 86.2491 46.6049L85.6967 46.0524C85.546 45.9018 85.3451 45.9018 85.2447 46.0524C85.094 46.2031 85.094 46.4542 85.1945 46.5546Z" fill="#51A3E0"/>
<path opacity="0.8" d="M87.0023 48.413L87.5547 48.9654C87.7054 49.1161 87.9063 49.1161 88.0569 48.9654C88.2076 48.8148 88.2076 48.6139 88.0569 48.4633L87.5045 47.9108C87.3539 47.7602 87.153 47.7602 87.0023 47.9108C86.9019 48.0615 86.9019 48.3126 87.0023 48.413Z" fill="#51A3E0"/>
<path opacity="0.8" d="M88.7602 50.3218L89.2624 50.9244C89.413 51.0751 89.6139 51.0751 89.7645 50.9747C89.9152 50.824 89.9152 50.6231 89.8148 50.4725L89.3126 49.8698C89.1619 49.7192 88.961 49.7192 88.8104 49.8698C88.6597 49.9703 88.6597 50.1711 88.7602 50.3218Z" fill="#51A3E0"/>
<path opacity="0.8" d="M90.5175 52.2812L91.0197 52.8838C91.1703 53.0345 91.3712 53.0345 91.5219 52.934C91.6725 52.7834 91.6725 52.5825 91.5721 52.4318L91.0699 51.8292C90.9192 51.6785 90.7184 51.6785 90.5677 51.779C90.3668 51.9296 90.3668 52.1305 90.5175 52.2812Z" fill="#51A3E0"/>
<path opacity="0.8" d="M92.175 54.2392L92.6772 54.8418C92.8278 54.9925 93.0287 55.0427 93.1794 54.892C93.33 54.7414 93.3802 54.5405 93.2296 54.3898L92.7274 53.7872C92.5767 53.6366 92.3759 53.6366 92.2252 53.737C92.0746 53.8876 92.0243 54.0885 92.175 54.2392Z" fill="#51A3E0"/>
<path opacity="0.8" d="M93.7821 56.2982L94.2341 56.9009C94.3345 57.0515 94.5856 57.1017 94.7363 56.9511C94.8869 56.8506 94.9371 56.5996 94.7865 56.4489L94.2843 55.8463C94.1838 55.6956 93.9328 55.6454 93.7821 55.796C93.6817 55.8965 93.6817 56.0974 93.7821 56.2982Z" fill="#51A3E0"/>
<path opacity="0.8" d="M95.3389 58.3572L95.7909 59.01C95.8914 59.1607 96.1425 59.2109 96.2931 59.1105C96.4438 59.01 96.494 58.7589 96.3935 58.6083L95.9416 57.9554C95.8411 57.8048 95.59 57.7545 95.4394 57.855C95.2887 57.9554 95.2385 58.1563 95.3389 58.3572Z" fill="#51A3E0"/>
<path opacity="0.8" d="M96.7953 60.5161L97.1971 61.169C97.2975 61.3699 97.5486 61.4201 97.6993 61.3196C97.9001 61.2192 97.9504 60.9681 97.8499 60.8174L97.4482 60.1646C97.3477 59.9637 97.0966 59.9135 96.946 60.0642C96.6949 60.0642 96.6447 60.3153 96.7953 60.5161Z" fill="#51A3E0"/>
<path opacity="0.8" d="M98.0506 62.7262L98.4022 63.4293C98.5026 63.6302 98.7537 63.6804 98.9043 63.58C99.1052 63.4795 99.1554 63.2284 99.055 63.0778L98.7035 62.3747C98.603 62.1738 98.3519 62.1236 98.2013 62.224C98.0506 62.3245 97.9502 62.5254 98.0506 62.7262Z" fill="#51A3E0"/>
<path opacity="0.8" d="M99.1552 65.0352L99.4565 65.7382C99.5569 65.9391 99.7578 66.0396 99.9587 65.9391C100.16 65.8387 100.26 65.6378 100.16 65.4369L99.8583 64.6836C99.7578 64.4828 99.5569 64.3823 99.3561 64.4828C99.1552 64.6334 99.0548 64.8343 99.1552 65.0352Z" fill="#51A3E0"/>
<path opacity="0.8" d="M100.009 67.4465L100.21 68.1998C100.26 68.4007 100.461 68.5513 100.712 68.5011C100.913 68.4509 101.063 68.25 101.013 67.9989L100.812 67.2456C100.762 67.0447 100.561 66.8941 100.31 66.9443C100.059 66.9945 99.9586 67.2456 100.009 67.4465Z" fill="#51A3E0"/>
<path opacity="0.8" d="M100.562 69.9573L100.662 70.7106C100.713 70.9114 100.863 71.0621 101.114 71.0621C101.315 71.0119 101.466 70.8612 101.466 70.6101L101.365 69.8066C101.315 69.6057 101.165 69.4551 100.913 69.4551C100.662 69.5053 100.512 69.7062 100.562 69.9573Z" fill="#51A3E0"/>
<path opacity="0.8" d="M100.712 72.4686L100.662 73.2219C100.662 73.4227 100.813 73.6236 101.064 73.6236C101.265 73.6236 101.465 73.473 101.465 73.2219L101.516 72.5188C101.516 72.3179 101.365 72.117 101.114 72.117C100.913 72.0668 100.712 72.2175 100.712 72.4686Z" fill="#51A3E0"/>
<path opacity="0.8" d="M100.411 74.9785L100.21 75.7318C100.16 75.9326 100.31 76.1837 100.511 76.234C100.712 76.2842 100.963 76.1335 101.014 75.9327L101.214 75.1291C101.265 74.9283 101.114 74.6772 100.913 74.627C100.712 74.627 100.461 74.7274 100.411 74.9785Z" fill="#51A3E0"/>
<path opacity="0.8" d="M99.6573 77.3899L99.356 78.0929C99.2556 78.2938 99.356 78.5449 99.5569 78.6453C99.7578 78.7458 100.009 78.6454 100.109 78.4445L100.461 77.6912C100.561 77.4903 100.461 77.2392 100.26 77.1388C100.009 77.0886 99.7578 77.189 99.6573 77.3899Z" fill="#51A3E0"/>
<path opacity="0.8" d="M98.4522 79.5993L98.0002 80.2019C97.8496 80.4028 97.8998 80.6539 98.1006 80.7544C98.3015 80.905 98.5526 80.8548 98.6531 80.6539L99.105 80.0011C99.2557 79.8002 99.2055 79.5491 99.0046 79.4487C98.8539 79.3482 98.6028 79.3984 98.4522 79.5993Z" fill="#51A3E0"/>
<path opacity="0.8" d="M96.8453 81.5583L96.2929 82.1107C96.1423 82.2614 96.1423 82.5125 96.2929 82.6631C96.4436 82.8138 96.6947 82.8138 96.8453 82.6631L97.3977 82.1107C97.5484 81.9601 97.5484 81.709 97.3977 81.5583C97.2973 81.4076 97.0462 81.4076 96.8453 81.5583Z" fill="#51A3E0"/>
<path opacity="0.8" d="M94.9369 83.2146L94.3342 83.6665C94.1334 83.8172 94.1334 84.0683 94.2338 84.2189C94.3845 84.4198 94.6356 84.4198 94.7862 84.3194L95.4391 83.8674C95.6399 83.7167 95.6399 83.4656 95.5395 83.315C95.3888 83.1141 95.1377 83.0639 94.9369 83.2146Z" fill="#51A3E0"/>
<path opacity="0.8" d="M92.8278 84.6214L92.1749 84.9729C91.974 85.0733 91.8736 85.3244 92.0243 85.5253C92.1247 85.7262 92.3758 85.8266 92.5767 85.676L93.2797 85.3244C93.4806 85.224 93.581 84.9729 93.4304 84.772C93.2797 84.5711 93.0286 84.4707 92.8278 84.6214Z" fill="#51A3E0"/>
<path opacity="0.8" d="M90.5179 85.6752L89.8148 85.9263C89.6139 86.0267 89.5135 86.2276 89.5637 86.4787C89.6641 86.6796 89.865 86.78 90.1161 86.7298L90.8694 86.4285C91.0703 86.328 91.1707 86.1271 91.1205 85.876C90.9698 85.7254 90.7188 85.625 90.5179 85.6752Z" fill="#51A3E0"/>
<path opacity="0.8" d="M88.107 86.4804L87.3537 86.6813C87.1528 86.7315 87.0022 86.9826 87.0524 87.1835C87.1026 87.3844 87.3537 87.535 87.5546 87.4848L88.3078 87.2839C88.5087 87.2337 88.6594 86.9826 88.6092 86.7817C88.5589 86.5809 88.3078 86.4302 88.107 86.4804Z" fill="#51A3E0"/>
<path opacity="0.8" d="M85.5963 87.0321L84.8431 87.1325C84.592 87.1827 84.4413 87.3836 84.4915 87.5845C84.5417 87.8356 84.7426 87.9862 84.9435 87.936L85.747 87.8356C85.9981 87.7854 86.1488 87.5845 86.0985 87.3836C86.0483 87.1325 85.8474 86.9819 85.5963 87.0321Z" fill="#51A3E0"/>
<path opacity="0.8" d="M83.0348 87.2324C82.7837 87.2324 82.5327 87.2324 82.2816 87.2324C82.0305 87.2324 81.8798 87.4333 81.8798 87.6342C81.8798 87.8853 82.0807 88.0359 82.2816 88.0359C82.5327 88.0359 82.834 88.0359 83.0851 88.0359C83.3362 88.0359 83.4868 87.835 83.4868 87.6342C83.4868 87.4333 83.2859 87.2324 83.0348 87.2324Z" fill="#51A3E0"/>
<path opacity="0.8" d="M80.4741 87.1322L79.7208 87.082C79.4697 87.082 79.2688 87.2327 79.2688 87.4838C79.2688 87.7349 79.4195 87.9358 79.6705 87.9358L80.4741 87.986C80.7251 87.986 80.926 87.8353 80.926 87.5842C80.8758 87.3833 80.7251 87.1825 80.4741 87.1322Z" fill="#51A3E0"/>
<path opacity="0.8" d="M77.9125 86.8312L77.1592 86.6805C76.9081 86.6303 76.7072 86.781 76.657 87.0321C76.6068 87.2831 76.7574 87.484 77.0085 87.5342L77.812 87.6849C78.0631 87.7351 78.264 87.5845 78.3142 87.3334C78.3142 87.1325 78.1636 86.8814 77.9125 86.8312Z" fill="#51A3E0"/>
<path opacity="0.8" d="M75.4015 86.3288L74.6482 86.1279C74.3971 86.0777 74.1962 86.2283 74.146 86.4292C74.0958 86.6803 74.2464 86.8812 74.4473 86.9314L75.2006 87.1323C75.4517 87.1825 75.6526 87.0318 75.7028 86.831C75.753 86.6301 75.6526 86.379 75.4015 86.3288Z" fill="#51A3E0"/>
<path opacity="0.8" d="M72.9411 85.6758L72.1879 85.4247C71.987 85.3744 71.7359 85.4749 71.6355 85.726C71.5852 85.9269 71.6857 86.1779 71.9368 86.2784L72.6901 86.5295C72.8909 86.5797 73.142 86.4793 73.2425 86.2282C73.2927 85.9771 73.142 85.726 72.9411 85.6758Z" fill="#51A3E0"/>
<path opacity="0.8" d="M70.4801 84.8729L69.7268 84.6218C69.526 84.5214 69.2749 84.672 69.1744 84.8729C69.074 85.0738 69.2246 85.3249 69.4255 85.4253L70.1788 85.6764C70.3797 85.7769 70.6308 85.6262 70.7312 85.4253C70.8317 85.2244 70.681 84.9231 70.4801 84.8729Z" fill="#51A3E0"/>
<path opacity="0.8" d="M68.0694 83.9189L67.3663 83.6176C67.1654 83.5172 66.9143 83.6176 66.8139 83.8687C66.7134 84.0696 66.8139 84.3207 67.065 84.4211L67.768 84.7224C67.9689 84.8229 68.22 84.7224 68.3205 84.4713C68.3707 84.2704 68.2702 84.0193 68.0694 83.9189Z" fill="#51A3E0"/>
<path opacity="0.8" d="M65.659 82.914L64.9559 82.6126C64.7551 82.5122 64.504 82.6126 64.4035 82.8135C64.3031 83.0144 64.4035 83.2655 64.6044 83.3659L65.3075 83.6672C65.5083 83.7677 65.7594 83.6673 65.8599 83.4664C66.0105 83.2655 65.9101 83.0144 65.659 82.914Z" fill="#51A3E0"/>
<path opacity="0.8" d="M63.2988 81.8602L62.5957 81.5589C62.3948 81.4585 62.1437 81.5589 62.0433 81.7598C61.9429 81.9607 62.0433 82.2118 62.2442 82.3122L62.9472 82.6135C63.1481 82.714 63.3992 82.6135 63.4997 82.4127C63.6001 82.2118 63.4997 81.9607 63.2988 81.8602Z" fill="#51A3E0"/>
<path opacity="0.8" d="M60.9389 80.7542L60.2359 80.4027C60.035 80.3022 59.7337 80.4027 59.6332 80.6036C59.5328 80.8044 59.6332 81.1058 59.8341 81.2062L60.5372 81.5577C60.738 81.6582 60.9891 81.5577 61.1398 81.3568C61.2402 81.156 61.1398 80.9049 60.9389 80.7542Z" fill="#51A3E0"/>
<path opacity="0.8" d="M58.6286 79.6498L57.9758 79.2983C57.7749 79.1978 57.4736 79.248 57.3731 79.4489C57.2727 79.6498 57.3229 79.9511 57.5238 80.0516L58.2269 80.4533C58.4277 80.5537 58.6788 80.5035 58.8295 80.3026C58.9299 80.0516 58.8295 79.7502 58.6286 79.6498Z" fill="#51A3E0"/>
<path opacity="0.8" d="M56.4694 78.2937L55.8667 77.8418H55.8165C55.6156 77.6911 55.3645 77.6911 55.2139 77.892C55.0632 78.0929 55.0632 78.344 55.2641 78.4946L55.917 78.9968C56.1178 79.1475 56.3689 79.1475 56.5196 78.9466C56.7205 78.7457 56.6702 78.4946 56.4694 78.2937Z" fill="#51A3E0"/>
<path opacity="0.8" d="M54.7115 76.5861L54.3097 75.9835L54.2595 75.9333C54.1089 75.7324 53.8578 75.6822 53.6569 75.7826C53.456 75.9333 53.4058 76.1844 53.5062 76.3853L53.9582 77.0883C54.1089 77.2892 54.36 77.3394 54.5608 77.239C54.8119 77.0883 54.9124 76.8372 54.7115 76.5861Z" fill="#51A3E0"/>
<path opacity="0.8" d="M53.8074 74.3767L53.7069 73.6737V73.6234C53.6567 73.3723 53.4558 73.2217 53.2047 73.2217C52.9536 73.2719 52.803 73.4728 52.803 73.7239L52.9034 74.5776C52.9536 74.8287 53.1545 74.9793 53.4056 74.9793C53.6567 74.9291 53.8074 74.7283 53.8074 74.4772V74.3767Z" fill="#51A3E0"/>
<path opacity="0.8" d="M53.908 72.0166C53.9582 71.8158 54.0586 71.5647 54.2093 71.3638C54.3097 71.1629 54.2595 70.8616 54.0586 70.7612C53.8578 70.6607 53.5565 70.7109 53.456 70.9118C53.3054 71.1629 53.2049 71.414 53.1045 71.7153C53.004 71.9664 53.1547 72.2175 53.4058 72.2677C53.5565 72.3682 53.8075 72.2677 53.908 72.0166Z" fill="#51A3E0"/>
<path opacity="0.8" d="M55.2637 70.2091C55.4646 70.0584 55.6655 69.958 55.8663 69.9077C56.0672 69.8073 56.2179 69.5562 56.1174 69.3553C56.017 69.1545 55.7659 69.0038 55.565 69.1042C55.3139 69.2047 55.0628 69.3553 54.8117 69.506C54.6109 69.6566 54.5607 69.9077 54.6611 70.1086C54.7615 70.3095 55.0628 70.3597 55.2637 70.2091Z" fill="#51A3E0"/>
<path opacity="0.8" d="M57.5241 69.5559H58.2773H58.3276C58.5787 69.5559 58.7795 69.355 58.7795 69.1541C58.7795 68.903 58.5787 68.7021 58.3778 68.7021H57.5743C57.3232 68.7021 57.1223 68.903 57.1223 69.1039C57.0219 69.355 57.2227 69.5559 57.5241 69.5559Z" fill="#51A3E0"/>
<path opacity="0.8" d="M59.9344 69.9067L60.6374 70.1076C60.8885 70.1578 61.0894 70.0574 61.1898 69.8063C61.2401 69.5552 61.1396 69.3543 60.8885 69.2539L60.1352 69.0028C59.8841 68.9526 59.6833 69.053 59.5828 69.3041C59.5828 69.5552 59.6833 69.8063 59.9344 69.9067Z" fill="#51A3E0"/>
<path opacity="0.8" d="M62.345 70.7614L63.0481 71.0627C63.249 71.1632 63.5001 71.0628 63.6005 70.8619C63.7009 70.661 63.6005 70.4099 63.3996 70.3095L62.6965 70.0082C62.4957 69.9077 62.2446 70.0081 62.1441 70.209C61.9935 70.3597 62.0939 70.6108 62.345 70.7614Z" fill="#51A3E0"/>
<path opacity="0.8" d="M64.6548 71.866L65.3579 72.2175C65.5588 72.318 65.8099 72.2678 65.9605 72.0669C66.061 71.866 66.0107 71.6149 65.8099 71.5145L65.1068 71.1127C64.9059 71.0123 64.6548 71.0625 64.5042 71.2634C64.3535 71.4643 64.4539 71.7153 64.6548 71.866Z" fill="#51A3E0"/>
<path opacity="0.8" d="M66.8646 73.1212L67.5175 73.5229C67.7183 73.6736 67.9694 73.5731 68.1201 73.3723C68.2707 73.1714 68.1703 72.9203 67.9694 72.7696L67.3166 72.3177C67.1157 72.167 66.8646 72.2674 66.714 72.4683C66.6135 72.7194 66.6637 73.0207 66.8646 73.1212Z" fill="#51A3E0"/>
<path opacity="0.8" d="M69.024 74.5772L69.6267 75.0292C69.8275 75.1798 70.0786 75.1296 70.2293 74.9288C70.38 74.7279 70.3297 74.4768 70.1289 74.3261L69.476 73.8239C69.2751 73.6733 69.024 73.7235 68.8734 73.9244C68.7729 74.1755 68.8232 74.4266 69.024 74.5772Z" fill="#51A3E0"/>
<path opacity="0.8" d="M71.033 76.1845L71.5854 76.6867C71.736 76.8373 72.0374 76.8373 72.188 76.6365C72.3387 76.4858 72.3387 76.1845 72.1378 76.0338L71.5352 75.4814C71.3845 75.3308 71.0832 75.3308 70.9325 75.5316C70.8321 75.7325 70.8321 76.0338 71.033 76.1845Z" fill="#51A3E0"/>
<path opacity="0.8" d="M72.8906 77.9416L73.3928 78.494C73.5435 78.6447 73.7946 78.6949 73.9954 78.494C74.1461 78.3433 74.1963 78.0922 73.9954 77.8914L73.443 77.2887C73.2924 77.1381 73.0413 77.0879 72.8404 77.2887C72.74 77.4896 72.6897 77.7909 72.8906 77.9416Z" fill="#51A3E0"/>
<path opacity="0.8" d="M74.548 79.901L74.9999 80.5037C75.1506 80.7045 75.4017 80.7045 75.5523 80.6041C75.7532 80.4534 75.7532 80.2023 75.6528 80.0517L75.1506 79.3988C74.9999 79.198 74.7488 79.198 74.5982 79.2984C74.4475 79.4491 74.3973 79.7001 74.548 79.901Z" fill="#51A3E0"/>
<path opacity="0.8" d="M76.0044 81.9595L76.4061 82.6123C76.5066 82.8132 76.7577 82.8634 76.9585 82.763C77.1594 82.6626 77.2096 82.4115 77.1092 82.2106L76.7075 81.5075C76.607 81.3066 76.3559 81.2564 76.155 81.3569C75.9542 81.5075 75.9039 81.7586 76.0044 81.9595Z" fill="#51A3E0"/>
<path opacity="0.8" d="M77.2602 84.2202L77.5616 84.9232C77.662 85.1241 77.9131 85.2245 78.114 85.1241C78.3148 85.0237 78.4153 84.7726 78.3148 84.5717L78.0135 83.8184C77.9131 83.6175 77.662 83.5171 77.4611 83.6175C77.2602 83.7682 77.1598 84.0193 77.2602 84.2202Z" fill="#51A3E0"/>
<path opacity="0.8" d="M78.1638 86.5801L78.3646 87.3333C78.4149 87.5342 78.666 87.6849 78.8668 87.5844C79.0677 87.5342 79.2184 87.2831 79.1179 87.0823L78.9171 86.329C78.8668 86.1281 78.6157 85.9774 78.4149 86.0779C78.214 86.1281 78.1135 86.3792 78.1638 86.5801Z" fill="#51A3E0"/>
<path opacity="0.8" d="M78.7665 89.0901L78.8669 89.8434C78.9171 90.0442 79.118 90.1949 79.3189 90.1949C79.5198 90.1447 79.6704 89.9438 79.6704 89.7429L79.57 88.9394C79.5198 88.7385 79.3189 88.5879 79.118 88.5879C78.8669 88.6381 78.7162 88.839 78.7665 89.0901Z" fill="#51A3E0"/>
<path opacity="0.8" d="M79.0175 91.6024V92.3557C79.0175 92.5565 79.1682 92.7574 79.4193 92.7574C79.6202 92.7574 79.821 92.6067 79.821 92.3557V91.5521C79.821 91.3513 79.6704 91.1504 79.4193 91.1504C79.1682 91.2006 79.0175 91.3513 79.0175 91.6024Z" fill="#51A3E0"/>
<path opacity="0.8" d="M78.867 94.1635L78.7666 94.9168C78.7164 95.1176 78.867 95.3185 79.0679 95.3185C79.2688 95.3687 79.4697 95.2181 79.4697 95.0172L79.5701 94.2137C79.6203 94.0128 79.4697 93.8119 79.2688 93.7617C79.1181 93.7617 78.9173 93.9124 78.867 94.1635Z" fill="#51A3E0"/>
<path opacity="0.8" d="M78.4145 96.6743L78.2136 97.4276C78.1634 97.6285 78.2638 97.8294 78.4647 97.8796C78.6656 97.9298 78.8665 97.8294 78.9167 97.6285L79.1176 96.8752C79.1678 96.6744 79.0674 96.4735 78.8665 96.4233C78.6656 96.3228 78.4647 96.4233 78.4145 96.6743Z" fill="#51A3E0"/>
<path opacity="0.8" d="M77.6108 99.0851L77.3095 99.7882C77.2592 99.989 77.3095 100.19 77.5103 100.24C77.7112 100.29 77.9121 100.24 77.9623 100.039L78.2636 99.286C78.3138 99.0851 78.2636 98.8842 78.0627 98.834C77.9121 98.834 77.7112 98.8842 77.6108 99.0851Z" fill="#51A3E0"/>
<path opacity="0.8" d="M76.607 101.445L76.2555 102.148C76.155 102.299 76.2052 102.5 76.4061 102.6C76.5568 102.7 76.7576 102.65 76.8581 102.449L77.2598 101.746C77.3603 101.596 77.3101 101.345 77.1092 101.294C76.9083 101.194 76.7074 101.244 76.607 101.445Z" fill="#51A3E0"/>
<path opacity="0.8" d="M75.3016 103.655L74.8496 104.307C74.7492 104.458 74.7994 104.659 74.9501 104.759C75.1007 104.86 75.3016 104.81 75.402 104.659L75.854 104.006C75.9544 103.856 75.9042 103.655 75.7536 103.554C75.6029 103.454 75.402 103.504 75.3016 103.655Z" fill="#51A3E0"/>
<path opacity="0.8" d="M73.795 105.764L73.2928 106.367C73.1924 106.518 73.1924 106.718 73.343 106.819C73.4937 106.919 73.6946 106.919 73.795 106.769L74.2972 106.166C74.3976 106.015 74.3976 105.814 74.247 105.714C74.1465 105.563 73.9457 105.614 73.795 105.764Z" fill="#51A3E0"/>
<path opacity="0.8" d="M72.1375 107.672L71.5851 108.225C71.4846 108.325 71.4846 108.526 71.5851 108.677C71.6855 108.777 71.8864 108.777 72.0371 108.677L72.5895 108.124C72.6899 108.024 72.6899 107.823 72.5895 107.672C72.489 107.522 72.2379 107.572 72.1375 107.672Z" fill="#51A3E0"/>
<path opacity="0.8" d="M70.2795 109.48L69.6768 109.982C69.5764 110.082 69.5262 110.283 69.6266 110.384C69.7271 110.484 69.9279 110.534 70.0284 110.434L70.631 109.932C70.7817 109.831 70.7817 109.63 70.6812 109.48C70.631 109.379 70.4301 109.379 70.2795 109.48Z" fill="#51A3E0"/>
<path opacity="0.8" d="M68.3208 111.137L67.7182 111.589C67.5675 111.689 67.5675 111.89 67.668 111.991C67.7684 112.141 67.9693 112.141 68.0697 112.041L68.7226 111.589C68.8732 111.488 68.8732 111.287 68.7728 111.187C68.6221 111.087 68.4212 111.036 68.3208 111.137Z" fill="#51A3E0"/>
<path opacity="0.8" d="M66.2118 112.644L65.5589 113.046C65.4083 113.146 65.4083 113.297 65.4585 113.448C65.5589 113.598 65.7096 113.598 65.8602 113.548L66.5131 113.146C66.6637 113.046 66.6637 112.895 66.6135 112.744C66.5131 112.594 66.3624 112.544 66.2118 112.644Z" fill="#51A3E0"/>
<path opacity="0.8" d="M64.0023 114L63.3494 114.402C63.249 114.452 63.1988 114.653 63.249 114.753C63.2992 114.854 63.4499 114.904 63.6005 114.854L64.3036 114.452C64.4543 114.402 64.4543 114.201 64.404 114.101C64.3036 114 64.153 113.95 64.0023 114Z" fill="#51A3E0"/>
<path opacity="0.8" d="M61.7422 115.255L61.0391 115.607C60.9387 115.657 60.8885 115.808 60.9387 115.908C60.9889 116.008 61.1396 116.059 61.24 116.008L61.9431 115.657C62.0435 115.607 62.0938 115.456 62.0435 115.305C61.9933 115.255 61.8427 115.205 61.7422 115.255Z" fill="#51A3E0"/>
<path opacity="0.8" d="M59.4324 116.41L58.7293 116.712C58.6289 116.762 58.5787 116.913 58.6289 117.013C58.6791 117.113 58.8298 117.164 58.9302 117.113L59.6333 116.812C59.7337 116.762 59.7839 116.611 59.7337 116.511C59.6835 116.41 59.5328 116.36 59.4324 116.41Z" fill="#51A3E0"/>
<path opacity="0.8" d="M57.0219 117.465L56.3189 117.766C56.2184 117.817 56.1682 117.917 56.2184 118.017C56.2686 118.118 56.3691 118.168 56.4695 118.118L57.1726 117.817C57.273 117.766 57.3232 117.666 57.273 117.565C57.273 117.465 57.1726 117.415 57.0219 117.465Z" fill="#51A3E0"/>
<path opacity="0.8" d="M54.6111 118.47L53.908 118.771C53.8076 118.821 53.7574 118.922 53.8076 119.022C53.8578 119.122 53.9583 119.173 54.0587 119.122L54.812 118.871C54.9124 118.821 54.9626 118.721 54.9124 118.62C54.8622 118.47 54.7116 118.419 54.6111 118.47C54.6111 118.47 54.6613 118.419 54.6111 118.47Z" fill="#51A3E0"/>
<path opacity="0.8" d="M52.2006 119.373L51.4473 119.624C51.3468 119.675 51.2966 119.725 51.3468 119.825C51.3971 119.926 51.4473 119.976 51.5477 119.926L52.301 119.675C52.4014 119.624 52.4517 119.524 52.4014 119.474C52.4014 119.373 52.301 119.323 52.2006 119.373Z" fill="#51A3E0"/>
<path opacity="0.8" d="M49.7396 120.277L48.9863 120.528C48.8858 120.579 48.8858 120.629 48.8858 120.729C48.936 120.779 48.9863 120.83 49.0867 120.83L49.84 120.579C49.9404 120.528 49.9404 120.478 49.9404 120.378C49.9404 120.277 49.84 120.227 49.7396 120.277C49.7396 120.277 49.7396 120.227 49.7396 120.277Z" fill="#51A3E0"/>
<path opacity="0.8" d="M47.2793 121.131L46.9277 121.231C46.8775 121.231 46.8273 121.332 46.8273 121.382C46.8273 121.432 46.9277 121.483 46.978 121.483L47.3295 121.382C47.3797 121.382 47.4299 121.282 47.4299 121.231C47.4299 121.131 47.3797 121.081 47.2793 121.131Z" fill="#51A3E0"/>
</g>
<g opacity="0.8">
<path opacity="0.8" d="M28.4966 8.18848L27.6429 14.6165L23.6755 11.2518L28.4966 8.18848Z" fill="#3E8FC1"/>
<path opacity="0.8" d="M0.0727119 0.556641L15.3895 18.1835C15.6909 18.5351 16.0926 18.736 16.5446 18.736C16.9966 18.736 17.4485 18.5853 17.7498 18.284L34.8746 2.21387C35.0754 2.01299 35.1257 1.7619 35.0252 1.5108C34.9248 1.25971 34.6737 1.10905 34.4226 1.10905L0.0727119 0.556641Z" fill="#51A3E0"/>
<path opacity="0.8" d="M28.4966 8.18897L0.0725613 0.555664L25.7847 10.8004L25.5839 12.6083L28.4966 8.18897Z" fill="#3E8FC1"/>
<path opacity="0.8" d="M24.1277 12.3074L27.6431 14.6174L25.785 10.8008L24.1277 12.3074Z" fill="#62BAEF"/>
</g>
</g>
</svg>
