<svg width="73" height="71" viewBox="0 0 73 71" fill="none" xmlns="http://www.w3.org/2000/svg">
<path d="M68.9281 32.5113C68.9281 51.5878 53.568 68.0716 34.5772 69.351C15.5071 70.6189 0 56.105 0 36.904C0 17.703 15.5071 1.21913 34.5659 0.0643505C53.568 -1.09043 68.9281 13.4349 68.9281 32.5113Z" fill="#303030"/>
<path d="M72.9997 33.7344C72.9997 52.8109 57.6397 69.2947 38.6488 70.574C19.5788 71.8534 4.08301 57.3281 4.08301 38.1384C4.08301 18.9488 19.5788 2.44227 38.6488 1.2875C57.651 0.132719 72.9997 14.658 72.9997 33.7344Z" fill="#47A7E3"/>
<path d="M44.8813 32.8044C47.1887 33.4837 49.0323 34.6611 50.4009 36.348C51.7696 38.0349 52.4595 40.1407 52.4595 42.688C52.4595 46.6278 51.204 49.6166 48.693 51.6545C46.182 53.6923 43.0263 54.7112 39.2258 54.7112C36.1041 54.7112 33.3668 53.998 31.0255 52.5715C28.6842 51.145 27.0102 49.0392 25.9922 46.2542L34.9504 41.103C35.6629 43.5823 37.0881 44.8277 39.2258 44.8277C40.142 44.8277 40.8772 44.5899 41.4428 44.1145C41.997 43.639 42.2798 42.9936 42.2798 42.1785C42.2798 40.4803 41.2618 39.6312 39.2258 39.6312H37.0315L33.0615 33.7215L37.8459 28.1174H27.1006V18.2339H50.5141V26.0796L44.8813 32.8044Z" fill="white"/>
</svg>
