<svg width="12" height="10" viewBox="0 0 12 10" fill="none" xmlns="http://www.w3.org/2000/svg">
<path d="M2.25258 4.3415C1.88889 3.92586 1.25713 3.88374 0.841495 4.24742C0.425859 4.61111 0.383741 5.24287 0.747423 5.6585L2.25258 4.3415ZM5 9L4.24742 9.6585C4.45074 9.89087 4.75 10.0163 5.05824 9.9983C5.36647 9.98032 5.64912 9.82096 5.82404 9.56653L5 9ZM11.324 1.56653C11.6369 1.11142 11.5216 0.488843 11.0665 0.175958C10.6114 -0.136927 9.98884 -0.0216346 9.67596 0.433471L11.324 1.56653ZM0.747423 5.6585L4.24742 9.6585L5.75258 8.3415L2.25258 4.3415L0.747423 5.6585ZM5.82404 9.56653L11.324 1.56653L9.67596 0.433471L4.17596 8.43347L5.82404 9.56653Z" fill="#ED6C21"/>
</svg>
