<svg width="73" height="71" viewBox="0 0 73 71" fill="none" xmlns="http://www.w3.org/2000/svg">
<path d="M68.3503 32.2152C68.3503 51.1179 53.119 67.4516 34.2873 68.7192C15.3771 69.9757 0 55.5939 0 36.5678C0 17.5417 15.3771 1.20802 34.2761 0.0637644C53.119 -1.08049 68.3503 13.3125 68.3503 32.2152Z" fill="#303030"/>
<path d="M72.3879 33.4261C72.3879 52.3287 57.1566 68.6625 38.3249 69.9301C19.4147 71.1978 4.04883 56.8048 4.04883 37.79C4.04883 18.7751 19.4147 2.41896 38.3249 1.2747C57.1678 0.130445 72.3879 14.5234 72.3879 33.4261Z" fill="#47A7E3"/>
<path d="M26.6489 51.6114V44.241L38.1566 31.7776C38.3584 31.542 38.6501 31.2279 39.0426 30.824C39.424 30.4202 39.7044 30.1397 39.8502 29.9715C40.0072 29.8032 40.2091 29.5788 40.4558 29.2871C40.7138 29.0067 40.8708 28.7711 40.9606 28.5804C41.0391 28.4009 41.1288 28.199 41.2185 27.9746C41.297 27.7615 41.3419 27.5259 41.3419 27.2903C41.3419 26.7182 41.14 26.2358 40.7362 25.8544C40.3325 25.473 39.738 25.271 38.9641 25.271C37.0798 25.271 35.6778 26.4714 34.7805 28.8496L25.8975 24.0034C27.0751 21.21 28.8136 19.0898 31.1241 17.6426C33.4234 16.1955 35.9919 15.4663 38.8183 15.4663C42.284 15.4663 45.2563 16.4535 47.7238 18.4167C50.1913 20.3799 51.4363 23.1059 51.4363 26.5723C51.4363 28.6926 50.9764 30.5436 50.0455 32.1254C49.1146 33.7071 47.6677 35.6142 45.6825 37.8354L42.1046 41.8291H52.199V51.6226H26.6489V51.6114Z" fill="white"/>
</svg>
