<svg width="352" height="294" viewBox="0 0 352 294" fill="none" xmlns="http://www.w3.org/2000/svg">
<path d="M128.586 55.3689C131.763 48.5625 135.813 41.9936 140.896 35.8204C180.842 -12.932 259.385 -8.81651 305.446 30.4387C356.511 73.9676 351.825 147.334 350.793 159.838C347.14 203.446 324.427 274.359 272.25 288.842C247.949 295.569 224.839 287.972 204.667 273.963C188.704 262.883 167.659 263.912 152.491 276.892C146.693 281.798 140.34 285.914 133.193 288.842C117.071 295.49 102.697 293.67 96.4228 292.879C47.8995 286.31 0.488002 231.305 0.964499 179.862C1.441 120.741 64.8946 75.4713 128.586 55.3689Z" fill="#DBEDFC"/>
</svg>
